<svg width="812" height="168" viewBox="0 0 812 168" fill="none" xmlns="http://www.w3.org/2000/svg">
<path d="M33.48 5.104C33.8 3.92 33.928 3.056 33.864 2.512C33.832 1.936 33.56 1.552 33.048 1.36C32.536 1.136 31.736 1.008 30.648 0.975999L30.888 0.0159998C31.848 0.0479994 33.096 0.079999 34.632 0.111999C36.2 0.143998 37.768 0.159998 39.336 0.159998C41.16 0.159998 42.872 0.143998 44.472 0.111999C46.104 0.079999 47.416 0.0479994 48.408 0.0159998L48.168 0.975999C47.08 1.008 46.232 1.136 45.624 1.36C45.016 1.552 44.536 1.936 44.184 2.512C43.864 3.056 43.544 3.92 43.224 5.104L36.888 28.912C36.6 30.064 36.472 30.928 36.504 31.504C36.536 32.08 36.808 32.464 37.32 32.656C37.832 32.848 38.632 32.976 39.72 33.04L39.528 34C38.568 33.936 37.272 33.904 35.64 33.904C34.04 33.872 32.328 33.856 30.504 33.856C28.936 33.856 27.368 33.872 25.8 33.904C24.264 33.904 23 33.936 22.008 34L22.2 33.04C23.288 32.976 24.136 32.848 24.744 32.656C25.352 32.464 25.832 32.08 26.184 31.504C26.536 30.928 26.856 30.064 27.144 28.912L33.48 5.104ZM15.576 28.912C15.288 30.064 15.16 30.928 15.192 31.504C15.224 32.08 15.496 32.464 16.008 32.656C16.52 32.848 17.32 32.976 18.408 33.04L18.216 34C17.224 33.936 15.96 33.904 14.424 33.904C12.888 33.872 11.32 33.856 9.72 33.856C7.896 33.856 6.184 33.872 4.584 33.904C3.016 33.904 1.736 33.936 0.744 34L0.984 33.04C2.04 32.976 2.856 32.848 3.432 32.656C4.04 32.464 4.52 32.08 4.872 31.504C5.224 30.928 5.544 30.064 5.832 28.912L12.168 5.104C12.488 3.92 12.616 3.056 12.552 2.512C12.488 1.936 12.2 1.552 11.688 1.36C11.208 1.136 10.424 1.008 9.336 0.975999L9.576 0.0159998C10.504 0.0479994 11.768 0.079999 13.368 0.111999C15 0.143998 16.728 0.159998 18.552 0.159998C20.152 0.159998 21.688 0.143998 23.16 0.111999C24.664 0.079999 25.976 0.0479994 27.096 0.0159998L26.856 0.975999C25.768 1.008 24.92 1.136 24.312 1.36C23.704 1.552 23.224 1.936 22.872 2.512C22.552 3.056 22.232 3.92 21.912 5.104L15.576 28.912ZM13.32 32.128L12.744 31.312L36.312 1.024L36.888 1.936L13.32 32.128ZM67.0133 29.92C66.8853 30.4 66.7893 30.8 66.7253 31.12C66.6933 31.408 66.7253 31.616 66.8213 31.744C66.9493 31.872 67.1573 31.936 67.4453 31.936C67.9253 31.936 68.3733 31.728 68.7893 31.312C69.2373 30.864 69.6693 30.064 70.0853 28.912L71.1893 25.984H72.1013L70.7573 29.728C70.1173 31.52 69.1733 32.8 67.9253 33.568C66.6773 34.304 65.2853 34.672 63.7493 34.672C62.5973 34.672 61.6533 34.496 60.9173 34.144C60.1813 33.792 59.6373 33.344 59.2853 32.8C58.9013 32.16 58.7093 31.424 58.7093 30.592C58.7413 29.728 58.8693 28.848 59.0933 27.952L64.3733 9.088C66.0373 9.056 67.5893 8.992 69.0293 8.896C70.4693 8.8 71.8133 8.64 73.0613 8.416L67.0133 29.92ZM46.2293 33.76C47.2533 33.76 48.1493 33.424 48.9173 32.752C49.7173 32.08 50.4213 31.2 51.0293 30.112C51.6373 28.992 52.1653 27.792 52.6133 26.512C53.0613 25.2 53.4453 23.936 53.7653 22.72C54.0853 21.472 54.3573 20.384 54.5813 19.456C55.1573 17.184 55.6853 15.248 56.1653 13.648C56.6773 12.016 57.2853 10.784 57.9893 9.952C58.6933 9.088 59.6053 8.656 60.7253 8.656C61.9413 8.656 62.7893 9.264 63.2693 10.48C63.7493 11.696 63.7333 13.184 63.2213 14.944L62.6933 15.232C63.0133 13.536 62.9653 12.176 62.5493 11.152C62.1333 10.096 61.5253 9.568 60.7253 9.568C60.0213 9.568 59.4133 9.84 58.9013 10.384C58.3893 10.896 57.9413 11.648 57.5573 12.64C57.1733 13.6 56.8053 14.784 56.4532 16.192C56.1013 17.6 55.7013 19.184 55.2533 20.944C54.8373 22.672 54.3413 24.416 53.7653 26.176C53.1893 27.936 52.5013 29.52 51.7013 30.928C50.9013 32.336 49.9093 33.36 48.7253 34C48.2133 34.288 47.7173 34.464 47.2373 34.528C46.7573 34.624 46.3413 34.672 45.9893 34.672C44.3253 34.672 43.0772 34.176 42.2452 33.184C41.4132 32.192 40.9972 31.008 40.9972 29.632C40.9972 28.096 41.4772 26.912 42.4372 26.08C43.3652 25.248 44.5013 24.832 45.8453 24.832C47.0933 24.832 48.0533 25.152 48.7253 25.792C49.3973 26.432 49.7333 27.248 49.7333 28.24C49.7333 29.424 49.3173 30.496 48.4853 31.456C47.6533 32.384 46.6453 33.104 45.4613 33.616C45.5253 33.648 45.6213 33.68 45.7493 33.712C45.9093 33.744 46.0693 33.76 46.2293 33.76ZM90.5801 9.376C90.0361 9.376 89.3961 9.84 88.6601 10.768C87.9241 11.664 87.1721 12.88 86.4041 14.416C85.6361 15.952 84.9161 17.664 84.2441 19.552C83.6041 21.44 83.0761 23.376 82.6601 25.36C82.2761 27.344 82.0841 29.232 82.0841 31.024C82.0841 32.016 82.1481 32.72 82.2761 33.136C82.4361 33.52 82.6761 33.712 82.9961 33.712C83.5081 33.712 84.1161 33.28 84.8201 32.416C85.5561 31.552 86.2921 30.384 87.0281 28.912C87.7961 27.44 88.5001 25.776 89.1401 23.92C89.8121 22.064 90.3561 20.128 90.7721 18.112C91.1881 16.064 91.3961 14.08 91.3961 12.16C91.3961 10.944 91.3161 10.176 91.1561 9.856C90.9961 9.536 90.8041 9.376 90.5801 9.376ZM74.1161 26.512C74.1161 25.008 74.3241 23.424 74.7401 21.76C75.1561 20.096 75.7961 18.48 76.6601 16.912C77.5241 15.312 78.6121 13.872 79.9241 12.592C81.2681 11.312 82.8361 10.304 84.6281 9.568C86.4521 8.8 88.5161 8.416 90.8201 8.416C93.6041 8.416 95.7161 9.12 97.1561 10.528C98.6281 11.936 99.3641 13.952 99.3641 16.576C99.3641 18.08 99.1561 19.664 98.7401 21.328C98.3241 22.992 97.6841 24.624 96.8201 26.224C95.9561 27.792 94.8521 29.216 93.5081 30.496C92.1961 31.776 90.6281 32.8 88.8041 33.568C87.0121 34.304 84.9641 34.672 82.6601 34.672C79.8761 34.672 77.7481 33.968 76.2761 32.56C74.8361 31.152 74.1161 29.136 74.1161 26.512ZM107.699 20.608H120.659V21.568H107.699V20.608ZM109.187 34H100.691L106.547 13.168C106.707 12.656 106.803 12.256 106.835 11.968C106.867 11.68 106.819 11.472 106.691 11.344C106.595 11.216 106.403 11.152 106.115 11.152C105.635 11.152 105.187 11.376 104.771 11.824C104.355 12.24 103.923 13.024 103.475 14.176L102.371 17.104H101.459L102.803 13.36C103.219 12.24 103.715 11.312 104.291 10.576C104.899 9.84 105.619 9.296 106.451 8.944C107.315 8.592 108.291 8.416 109.379 8.416C110.627 8.416 111.619 8.624 112.355 9.04C113.091 9.424 113.619 9.952 113.939 10.624C114.259 11.296 114.419 12.032 114.419 12.832C114.419 13.6 114.323 14.368 114.131 15.136L109.187 34ZM123.251 29.92C123.027 30.656 122.931 31.184 122.963 31.504C123.027 31.792 123.267 31.936 123.683 31.936C124.163 31.936 124.611 31.728 125.027 31.312C125.475 30.864 125.907 30.064 126.323 28.912L127.427 25.984H128.339L126.995 29.728C126.579 30.912 126.003 31.872 125.267 32.608C124.563 33.344 123.763 33.872 122.867 34.192C122.003 34.512 121.091 34.672 120.131 34.672C119.011 34.672 118.099 34.496 117.395 34.144C116.723 33.824 116.211 33.376 115.859 32.8C115.475 32.16 115.283 31.424 115.283 30.592C115.315 29.728 115.443 28.848 115.667 27.952L120.611 9.088C122.275 9.056 123.827 8.992 125.267 8.896C126.707 8.8 128.051 8.64 129.299 8.416L123.251 29.92ZM178.214 0.159998H182.918C184.614 0.159998 186.214 0.143998 187.718 0.111999C189.254 0.079999 190.614 0.0479994 191.798 0.0159998L191.558 0.975999C190.47 1.008 189.622 1.136 189.014 1.36C188.406 1.552 187.926 1.936 187.574 2.512C187.254 3.056 186.934 3.92 186.614 5.104L180.278 28.912C179.99 30.064 179.862 30.928 179.894 31.504C179.958 32.08 180.246 32.464 180.758 32.656C181.27 32.848 182.054 32.976 183.11 33.04L182.918 34C181.734 33.936 180.39 33.904 178.886 33.904C177.382 33.872 175.782 33.856 174.086 33.856C172.358 33.856 170.71 33.872 169.142 33.904C167.606 33.904 166.374 33.936 165.446 34L165.638 33.04C166.758 32.976 167.606 32.848 168.182 32.656C168.79 32.464 169.27 32.08 169.622 31.504C169.974 30.928 170.294 30.064 170.582 28.912L177.542 3.04L157.622 34.24H156.566L152.294 6.208L146.726 27.424C146.502 28.32 146.39 29.2 146.39 30.064C146.422 30.896 146.742 31.584 147.35 32.128C147.958 32.672 149.046 32.976 150.614 33.04L150.422 34C150.038 33.968 149.494 33.952 148.79 33.952C148.118 33.92 147.414 33.904 146.678 33.904C145.942 33.872 145.286 33.856 144.71 33.856C143.878 33.856 143.046 33.872 142.214 33.904C141.382 33.904 140.694 33.936 140.15 34L140.342 33.04C141.462 32.976 142.358 32.672 143.03 32.128C143.734 31.584 144.294 30.896 144.71 30.064C145.126 29.2 145.446 28.32 145.67 27.424L151.622 5.104C151.942 3.92 152.07 3.056 152.006 2.512C151.942 1.936 151.654 1.552 151.142 1.36C150.662 1.136 149.878 1.008 148.79 0.975999L149.03 0.0159998C149.926 0.0479994 151.094 0.079999 152.534 0.111999C154.006 0.143998 155.542 0.159998 157.142 0.159998C157.942 0.159998 158.726 0.143998 159.494 0.111999C160.262 0.079999 160.95 0.0479994 161.558 0.0159998L164.342 21.904L178.214 0.159998ZM196.214 31.408C196.534 31.408 196.87 31.28 197.222 31.024C197.574 30.768 197.942 30.336 198.326 29.728C198.71 29.088 199.126 28.208 199.574 27.088C200.022 25.968 200.502 24.528 201.014 22.768L199.766 28C199.254 29.696 198.598 31.04 197.798 32.032C197.03 32.992 196.15 33.664 195.158 34.048C194.198 34.464 193.158 34.672 192.038 34.672C190.022 34.672 188.518 34.16 187.526 33.136C186.566 32.08 186.086 30.592 186.086 28.672C186.086 26.816 186.39 24.928 186.998 23.008C187.638 21.088 188.486 19.264 189.542 17.536C190.63 15.776 191.83 14.224 193.142 12.88C194.486 11.504 195.878 10.416 197.318 9.616C198.758 8.816 200.15 8.416 201.494 8.416C202.518 8.416 203.302 8.736 203.846 9.376C204.422 10.016 204.63 11.152 204.47 12.784L203.942 13.072C204.102 12.272 204.102 11.696 203.942 11.344C203.782 10.96 203.51 10.768 203.126 10.768C202.582 10.768 201.958 11.12 201.254 11.824C200.582 12.496 199.878 13.44 199.142 14.656C198.438 15.84 197.766 17.216 197.126 18.784C196.518 20.32 196.022 21.952 195.638 23.68C195.286 25.408 195.11 27.136 195.11 28.864C195.11 29.76 195.19 30.416 195.35 30.832C195.51 31.216 195.798 31.408 196.214 31.408ZM205.094 9.136C206.854 9.104 208.406 9.04 209.75 8.944C211.126 8.816 212.47 8.64 213.782 8.416L207.302 29.92C207.142 30.432 207.062 30.848 207.062 31.168C207.094 31.456 207.174 31.664 207.302 31.792C207.462 31.888 207.654 31.936 207.878 31.936C208.166 31.936 208.534 31.776 208.982 31.456C209.43 31.104 209.91 30.256 210.422 28.912L211.43 26.224H212.342L211.142 29.728C210.694 31.072 210.086 32.096 209.318 32.8C208.582 33.504 207.766 33.984 206.87 34.24C206.006 34.528 205.142 34.672 204.278 34.672C202.326 34.672 200.934 34.112 200.102 32.992C199.622 32.32 199.35 31.44 199.286 30.352C199.254 29.264 199.462 27.952 199.91 26.416L205.094 9.136ZM232.695 9.376C231.511 9.376 230.359 9.888 229.239 10.912C228.119 11.904 227.127 13.248 226.263 14.944C225.399 16.608 224.711 18.48 224.199 20.56C223.687 22.608 223.431 24.688 223.431 26.8C223.431 28.528 223.783 29.776 224.487 30.544C225.191 31.312 226.119 31.696 227.271 31.696C228.199 31.696 229.143 31.424 230.103 30.88C231.063 30.336 232.039 29.328 233.031 27.856L233.991 28.24C233.319 29.296 232.471 30.32 231.447 31.312C230.455 32.304 229.255 33.12 227.847 33.76C226.471 34.368 224.855 34.672 222.999 34.672C220.567 34.672 218.535 34.064 216.903 32.848C215.271 31.632 214.455 29.712 214.455 27.088C214.455 25.424 214.711 23.728 215.223 22C215.767 20.24 216.535 18.56 217.527 16.96C218.551 15.328 219.783 13.872 221.223 12.592C222.663 11.312 224.295 10.304 226.119 9.568C227.943 8.8 229.927 8.416 232.071 8.416C234.055 8.416 235.591 8.912 236.679 9.904C237.767 10.896 238.311 12.064 238.311 13.408C238.311 14.432 238.055 15.424 237.543 16.384C237.031 17.344 236.343 18.144 235.479 18.784C234.647 19.392 233.719 19.696 232.695 19.696C231.863 19.696 231.111 19.408 230.439 18.832C229.767 18.256 229.431 17.424 229.431 16.336C229.431 14.768 229.927 13.408 230.919 12.256C231.911 11.104 233.047 10.336 234.327 9.952C234.103 9.76 233.863 9.616 233.607 9.52C233.351 9.424 233.047 9.376 232.695 9.376ZM259.641 29.92C259.513 30.688 259.497 31.216 259.593 31.504C259.689 31.792 259.897 31.936 260.217 31.936C260.505 31.936 260.873 31.776 261.321 31.456C261.769 31.104 262.249 30.256 262.761 28.912L263.769 26.224H264.681L263.481 29.728C263.033 31.008 262.377 32.016 261.513 32.752C260.681 33.456 259.769 33.952 258.777 34.24C257.785 34.528 256.841 34.672 255.945 34.672C254.025 34.672 252.665 34.16 251.865 33.136C251.097 32.08 250.937 30.528 251.385 28.48L251.961 25.936C252.345 24.304 252.313 23.152 251.865 22.48C251.417 21.776 250.377 21.328 248.745 21.136V20.944C250.345 20.848 251.865 20.864 253.305 20.992C254.777 21.088 256.057 21.376 257.145 21.856C258.265 22.336 259.081 23.072 259.593 24.064C260.137 25.056 260.265 26.368 259.977 28L259.641 29.92ZM260.553 9.328C260.105 9.328 259.705 9.392 259.353 9.52C259.001 9.648 258.665 9.84 258.345 10.096C257.769 10.608 257.321 11.312 257.001 12.208C256.681 13.104 256.361 14.064 256.041 15.088C255.721 16.112 255.305 17.088 254.793 18.016C254.313 18.944 253.641 19.696 252.777 20.272C251.913 20.848 250.761 21.12 249.321 21.088L248.841 21.136L248.937 20.608C250.345 20.512 251.449 20.176 252.249 19.6C253.081 18.992 253.705 18.24 254.121 17.344C254.569 16.448 254.937 15.504 255.225 14.512C255.513 13.52 255.817 12.592 256.137 11.728C256.489 10.832 256.985 10.096 257.625 9.52C258.105 9.104 258.633 8.816 259.209 8.656C259.785 8.496 260.281 8.416 260.697 8.416C262.553 8.416 263.929 8.96 264.825 10.048C265.753 11.136 266.217 12.416 266.217 13.888C266.217 14.912 265.993 15.792 265.545 16.528C265.129 17.264 264.553 17.824 263.817 18.208C263.081 18.56 262.265 18.736 261.369 18.736C260.121 18.736 259.161 18.416 258.489 17.776C257.817 17.104 257.481 16.32 257.481 15.424C257.481 14.112 257.913 12.992 258.777 12.064C259.673 11.136 260.665 10.432 261.753 9.952C261.625 9.76 261.449 9.616 261.225 9.52C261.001 9.392 260.777 9.328 260.553 9.328ZM246.249 34H237.753L243.609 13.168C243.769 12.656 243.865 12.256 243.897 11.968C243.929 11.68 243.881 11.472 243.753 11.344C243.657 11.216 243.465 11.152 243.177 11.152C242.697 11.152 242.249 11.376 241.833 11.824C241.417 12.24 240.985 13.024 240.537 14.176L239.433 17.104H238.521L239.865 13.36C240.281 12.24 240.777 11.312 241.353 10.576C241.961 9.84 242.681 9.296 243.513 8.944C244.377 8.592 245.353 8.416 246.441 8.416C247.689 8.416 248.681 8.624 249.417 9.04C250.153 9.424 250.681 9.952 251.001 10.624C251.321 11.296 251.481 12.032 251.481 12.832C251.481 13.6 251.385 14.368 251.193 15.136L246.249 34Z" fill="white"/>
<path d="M33.48 5.104C33.8 3.92 33.928 3.056 33.864 2.512C33.832 1.936 33.56 1.552 33.048 1.36C32.536 1.136 31.736 1.008 30.648 0.975999L30.888 0.0159998C31.848 0.0479994 33.096 0.079999 34.632 0.111999C36.2 0.143998 37.768 0.159998 39.336 0.159998C41.16 0.159998 42.872 0.143998 44.472 0.111999C46.104 0.079999 47.416 0.0479994 48.408 0.0159998L48.168 0.975999C47.08 1.008 46.232 1.136 45.624 1.36C45.016 1.552 44.536 1.936 44.184 2.512C43.864 3.056 43.544 3.92 43.224 5.104L36.888 28.912C36.6 30.064 36.472 30.928 36.504 31.504C36.536 32.08 36.808 32.464 37.32 32.656C37.832 32.848 38.632 32.976 39.72 33.04L39.528 34C38.568 33.936 37.272 33.904 35.64 33.904C34.04 33.872 32.328 33.856 30.504 33.856C28.936 33.856 27.368 33.872 25.8 33.904C24.264 33.904 23 33.936 22.008 34L22.2 33.04C23.288 32.976 24.136 32.848 24.744 32.656C25.352 32.464 25.832 32.08 26.184 31.504C26.536 30.928 26.856 30.064 27.144 28.912L33.48 5.104ZM15.576 28.912C15.288 30.064 15.16 30.928 15.192 31.504C15.224 32.08 15.496 32.464 16.008 32.656C16.52 32.848 17.32 32.976 18.408 33.04L18.216 34C17.224 33.936 15.96 33.904 14.424 33.904C12.888 33.872 11.32 33.856 9.72 33.856C7.896 33.856 6.184 33.872 4.584 33.904C3.016 33.904 1.736 33.936 0.744 34L0.984 33.04C2.04 32.976 2.856 32.848 3.432 32.656C4.04 32.464 4.52 32.08 4.872 31.504C5.224 30.928 5.544 30.064 5.832 28.912L12.168 5.104C12.488 3.92 12.616 3.056 12.552 2.512C12.488 1.936 12.2 1.552 11.688 1.36C11.208 1.136 10.424 1.008 9.336 0.975999L9.576 0.0159998C10.504 0.0479994 11.768 0.079999 13.368 0.111999C15 0.143998 16.728 0.159998 18.552 0.159998C20.152 0.159998 21.688 0.143998 23.16 0.111999C24.664 0.079999 25.976 0.0479994 27.096 0.0159998L26.856 0.975999C25.768 1.008 24.92 1.136 24.312 1.36C23.704 1.552 23.224 1.936 22.872 2.512C22.552 3.056 22.232 3.92 21.912 5.104L15.576 28.912ZM13.32 32.128L12.744 31.312L36.312 1.024L36.888 1.936L13.32 32.128ZM67.0133 29.92C66.8853 30.4 66.7893 30.8 66.7253 31.12C66.6933 31.408 66.7253 31.616 66.8213 31.744C66.9493 31.872 67.1573 31.936 67.4453 31.936C67.9253 31.936 68.3733 31.728 68.7893 31.312C69.2373 30.864 69.6693 30.064 70.0853 28.912L71.1893 25.984H72.1013L70.7573 29.728C70.1173 31.52 69.1733 32.8 67.9253 33.568C66.6773 34.304 65.2853 34.672 63.7493 34.672C62.5973 34.672 61.6533 34.496 60.9173 34.144C60.1813 33.792 59.6373 33.344 59.2853 32.8C58.9013 32.16 58.7093 31.424 58.7093 30.592C58.7413 29.728 58.8693 28.848 59.0933 27.952L64.3733 9.088C66.0373 9.056 67.5893 8.992 69.0293 8.896C70.4693 8.8 71.8133 8.64 73.0613 8.416L67.0133 29.92ZM46.2293 33.76C47.2533 33.76 48.1493 33.424 48.9173 32.752C49.7173 32.08 50.4213 31.2 51.0293 30.112C51.6373 28.992 52.1653 27.792 52.6133 26.512C53.0613 25.2 53.4453 23.936 53.7653 22.72C54.0853 21.472 54.3573 20.384 54.5813 19.456C55.1573 17.184 55.6853 15.248 56.1653 13.648C56.6773 12.016 57.2853 10.784 57.9893 9.952C58.6933 9.088 59.6053 8.656 60.7253 8.656C61.9413 8.656 62.7893 9.264 63.2693 10.48C63.7493 11.696 63.7333 13.184 63.2213 14.944L62.6933 15.232C63.0133 13.536 62.9653 12.176 62.5493 11.152C62.1333 10.096 61.5253 9.568 60.7253 9.568C60.0213 9.568 59.4133 9.84 58.9013 10.384C58.3893 10.896 57.9413 11.648 57.5573 12.64C57.1733 13.6 56.8053 14.784 56.4532 16.192C56.1013 17.6 55.7013 19.184 55.2533 20.944C54.8373 22.672 54.3413 24.416 53.7653 26.176C53.1893 27.936 52.5013 29.52 51.7013 30.928C50.9013 32.336 49.9093 33.36 48.7253 34C48.2133 34.288 47.7173 34.464 47.2373 34.528C46.7573 34.624 46.3413 34.672 45.9893 34.672C44.3253 34.672 43.0772 34.176 42.2452 33.184C41.4132 32.192 40.9972 31.008 40.9972 29.632C40.9972 28.096 41.4772 26.912 42.4372 26.08C43.3652 25.248 44.5013 24.832 45.8453 24.832C47.0933 24.832 48.0533 25.152 48.7253 25.792C49.3973 26.432 49.7333 27.248 49.7333 28.24C49.7333 29.424 49.3173 30.496 48.4853 31.456C47.6533 32.384 46.6453 33.104 45.4613 33.616C45.5253 33.648 45.6213 33.68 45.7493 33.712C45.9093 33.744 46.0693 33.76 46.2293 33.76ZM90.5801 9.376C90.0361 9.376 89.3961 9.84 88.6601 10.768C87.9241 11.664 87.1721 12.88 86.4041 14.416C85.6361 15.952 84.9161 17.664 84.2441 19.552C83.6041 21.44 83.0761 23.376 82.6601 25.36C82.2761 27.344 82.0841 29.232 82.0841 31.024C82.0841 32.016 82.1481 32.72 82.2761 33.136C82.4361 33.52 82.6761 33.712 82.9961 33.712C83.5081 33.712 84.1161 33.28 84.8201 32.416C85.5561 31.552 86.2921 30.384 87.0281 28.912C87.7961 27.44 88.5001 25.776 89.1401 23.92C89.8121 22.064 90.3561 20.128 90.7721 18.112C91.1881 16.064 91.3961 14.08 91.3961 12.16C91.3961 10.944 91.3161 10.176 91.1561 9.856C90.9961 9.536 90.8041 9.376 90.5801 9.376ZM74.1161 26.512C74.1161 25.008 74.3241 23.424 74.7401 21.76C75.1561 20.096 75.7961 18.48 76.6601 16.912C77.5241 15.312 78.6121 13.872 79.9241 12.592C81.2681 11.312 82.8361 10.304 84.6281 9.568C86.4521 8.8 88.5161 8.416 90.8201 8.416C93.6041 8.416 95.7161 9.12 97.1561 10.528C98.6281 11.936 99.3641 13.952 99.3641 16.576C99.3641 18.08 99.1561 19.664 98.7401 21.328C98.3241 22.992 97.6841 24.624 96.8201 26.224C95.9561 27.792 94.8521 29.216 93.5081 30.496C92.1961 31.776 90.6281 32.8 88.8041 33.568C87.0121 34.304 84.9641 34.672 82.6601 34.672C79.8761 34.672 77.7481 33.968 76.2761 32.56C74.8361 31.152 74.1161 29.136 74.1161 26.512ZM107.699 20.608H120.659V21.568H107.699V20.608ZM109.187 34H100.691L106.547 13.168C106.707 12.656 106.803 12.256 106.835 11.968C106.867 11.68 106.819 11.472 106.691 11.344C106.595 11.216 106.403 11.152 106.115 11.152C105.635 11.152 105.187 11.376 104.771 11.824C104.355 12.24 103.923 13.024 103.475 14.176L102.371 17.104H101.459L102.803 13.36C103.219 12.24 103.715 11.312 104.291 10.576C104.899 9.84 105.619 9.296 106.451 8.944C107.315 8.592 108.291 8.416 109.379 8.416C110.627 8.416 111.619 8.624 112.355 9.04C113.091 9.424 113.619 9.952 113.939 10.624C114.259 11.296 114.419 12.032 114.419 12.832C114.419 13.6 114.323 14.368 114.131 15.136L109.187 34ZM123.251 29.92C123.027 30.656 122.931 31.184 122.963 31.504C123.027 31.792 123.267 31.936 123.683 31.936C124.163 31.936 124.611 31.728 125.027 31.312C125.475 30.864 125.907 30.064 126.323 28.912L127.427 25.984H128.339L126.995 29.728C126.579 30.912 126.003 31.872 125.267 32.608C124.563 33.344 123.763 33.872 122.867 34.192C122.003 34.512 121.091 34.672 120.131 34.672C119.011 34.672 118.099 34.496 117.395 34.144C116.723 33.824 116.211 33.376 115.859 32.8C115.475 32.16 115.283 31.424 115.283 30.592C115.315 29.728 115.443 28.848 115.667 27.952L120.611 9.088C122.275 9.056 123.827 8.992 125.267 8.896C126.707 8.8 128.051 8.64 129.299 8.416L123.251 29.92ZM178.214 0.159998H182.918C184.614 0.159998 186.214 0.143998 187.718 0.111999C189.254 0.079999 190.614 0.0479994 191.798 0.0159998L191.558 0.975999C190.47 1.008 189.622 1.136 189.014 1.36C188.406 1.552 187.926 1.936 187.574 2.512C187.254 3.056 186.934 3.92 186.614 5.104L180.278 28.912C179.99 30.064 179.862 30.928 179.894 31.504C179.958 32.08 180.246 32.464 180.758 32.656C181.27 32.848 182.054 32.976 183.11 33.04L182.918 34C181.734 33.936 180.39 33.904 178.886 33.904C177.382 33.872 175.782 33.856 174.086 33.856C172.358 33.856 170.71 33.872 169.142 33.904C167.606 33.904 166.374 33.936 165.446 34L165.638 33.04C166.758 32.976 167.606 32.848 168.182 32.656C168.79 32.464 169.27 32.08 169.622 31.504C169.974 30.928 170.294 30.064 170.582 28.912L177.542 3.04L157.622 34.24H156.566L152.294 6.208L146.726 27.424C146.502 28.32 146.39 29.2 146.39 30.064C146.422 30.896 146.742 31.584 147.35 32.128C147.958 32.672 149.046 32.976 150.614 33.04L150.422 34C150.038 33.968 149.494 33.952 148.79 33.952C148.118 33.92 147.414 33.904 146.678 33.904C145.942 33.872 145.286 33.856 144.71 33.856C143.878 33.856 143.046 33.872 142.214 33.904C141.382 33.904 140.694 33.936 140.15 34L140.342 33.04C141.462 32.976 142.358 32.672 143.03 32.128C143.734 31.584 144.294 30.896 144.71 30.064C145.126 29.2 145.446 28.32 145.67 27.424L151.622 5.104C151.942 3.92 152.07 3.056 152.006 2.512C151.942 1.936 151.654 1.552 151.142 1.36C150.662 1.136 149.878 1.008 148.79 0.975999L149.03 0.0159998C149.926 0.0479994 151.094 0.079999 152.534 0.111999C154.006 0.143998 155.542 0.159998 157.142 0.159998C157.942 0.159998 158.726 0.143998 159.494 0.111999C160.262 0.079999 160.95 0.0479994 161.558 0.0159998L164.342 21.904L178.214 0.159998ZM196.214 31.408C196.534 31.408 196.87 31.28 197.222 31.024C197.574 30.768 197.942 30.336 198.326 29.728C198.71 29.088 199.126 28.208 199.574 27.088C200.022 25.968 200.502 24.528 201.014 22.768L199.766 28C199.254 29.696 198.598 31.04 197.798 32.032C197.03 32.992 196.15 33.664 195.158 34.048C194.198 34.464 193.158 34.672 192.038 34.672C190.022 34.672 188.518 34.16 187.526 33.136C186.566 32.08 186.086 30.592 186.086 28.672C186.086 26.816 186.39 24.928 186.998 23.008C187.638 21.088 188.486 19.264 189.542 17.536C190.63 15.776 191.83 14.224 193.142 12.88C194.486 11.504 195.878 10.416 197.318 9.616C198.758 8.816 200.15 8.416 201.494 8.416C202.518 8.416 203.302 8.736 203.846 9.376C204.422 10.016 204.63 11.152 204.47 12.784L203.942 13.072C204.102 12.272 204.102 11.696 203.942 11.344C203.782 10.96 203.51 10.768 203.126 10.768C202.582 10.768 201.958 11.12 201.254 11.824C200.582 12.496 199.878 13.44 199.142 14.656C198.438 15.84 197.766 17.216 197.126 18.784C196.518 20.32 196.022 21.952 195.638 23.68C195.286 25.408 195.11 27.136 195.11 28.864C195.11 29.76 195.19 30.416 195.35 30.832C195.51 31.216 195.798 31.408 196.214 31.408ZM205.094 9.136C206.854 9.104 208.406 9.04 209.75 8.944C211.126 8.816 212.47 8.64 213.782 8.416L207.302 29.92C207.142 30.432 207.062 30.848 207.062 31.168C207.094 31.456 207.174 31.664 207.302 31.792C207.462 31.888 207.654 31.936 207.878 31.936C208.166 31.936 208.534 31.776 208.982 31.456C209.43 31.104 209.91 30.256 210.422 28.912L211.43 26.224H212.342L211.142 29.728C210.694 31.072 210.086 32.096 209.318 32.8C208.582 33.504 207.766 33.984 206.87 34.24C206.006 34.528 205.142 34.672 204.278 34.672C202.326 34.672 200.934 34.112 200.102 32.992C199.622 32.32 199.35 31.44 199.286 30.352C199.254 29.264 199.462 27.952 199.91 26.416L205.094 9.136ZM232.695 9.376C231.511 9.376 230.359 9.888 229.239 10.912C228.119 11.904 227.127 13.248 226.263 14.944C225.399 16.608 224.711 18.48 224.199 20.56C223.687 22.608 223.431 24.688 223.431 26.8C223.431 28.528 223.783 29.776 224.487 30.544C225.191 31.312 226.119 31.696 227.271 31.696C228.199 31.696 229.143 31.424 230.103 30.88C231.063 30.336 232.039 29.328 233.031 27.856L233.991 28.24C233.319 29.296 232.471 30.32 231.447 31.312C230.455 32.304 229.255 33.12 227.847 33.76C226.471 34.368 224.855 34.672 222.999 34.672C220.567 34.672 218.535 34.064 216.903 32.848C215.271 31.632 214.455 29.712 214.455 27.088C214.455 25.424 214.711 23.728 215.223 22C215.767 20.24 216.535 18.56 217.527 16.96C218.551 15.328 219.783 13.872 221.223 12.592C222.663 11.312 224.295 10.304 226.119 9.568C227.943 8.8 229.927 8.416 232.071 8.416C234.055 8.416 235.591 8.912 236.679 9.904C237.767 10.896 238.311 12.064 238.311 13.408C238.311 14.432 238.055 15.424 237.543 16.384C237.031 17.344 236.343 18.144 235.479 18.784C234.647 19.392 233.719 19.696 232.695 19.696C231.863 19.696 231.111 19.408 230.439 18.832C229.767 18.256 229.431 17.424 229.431 16.336C229.431 14.768 229.927 13.408 230.919 12.256C231.911 11.104 233.047 10.336 234.327 9.952C234.103 9.76 233.863 9.616 233.607 9.52C233.351 9.424 233.047 9.376 232.695 9.376ZM259.641 29.92C259.513 30.688 259.497 31.216 259.593 31.504C259.689 31.792 259.897 31.936 260.217 31.936C260.505 31.936 260.873 31.776 261.321 31.456C261.769 31.104 262.249 30.256 262.761 28.912L263.769 26.224H264.681L263.481 29.728C263.033 31.008 262.377 32.016 261.513 32.752C260.681 33.456 259.769 33.952 258.777 34.24C257.785 34.528 256.841 34.672 255.945 34.672C254.025 34.672 252.665 34.16 251.865 33.136C251.097 32.08 250.937 30.528 251.385 28.48L251.961 25.936C252.345 24.304 252.313 23.152 251.865 22.48C251.417 21.776 250.377 21.328 248.745 21.136V20.944C250.345 20.848 251.865 20.864 253.305 20.992C254.777 21.088 256.057 21.376 257.145 21.856C258.265 22.336 259.081 23.072 259.593 24.064C260.137 25.056 260.265 26.368 259.977 28L259.641 29.92ZM260.553 9.328C260.105 9.328 259.705 9.392 259.353 9.52C259.001 9.648 258.665 9.84 258.345 10.096C257.769 10.608 257.321 11.312 257.001 12.208C256.681 13.104 256.361 14.064 256.041 15.088C255.721 16.112 255.305 17.088 254.793 18.016C254.313 18.944 253.641 19.696 252.777 20.272C251.913 20.848 250.761 21.12 249.321 21.088L248.841 21.136L248.937 20.608C250.345 20.512 251.449 20.176 252.249 19.6C253.081 18.992 253.705 18.24 254.121 17.344C254.569 16.448 254.937 15.504 255.225 14.512C255.513 13.52 255.817 12.592 256.137 11.728C256.489 10.832 256.985 10.096 257.625 9.52C258.105 9.104 258.633 8.816 259.209 8.656C259.785 8.496 260.281 8.416 260.697 8.416C262.553 8.416 263.929 8.96 264.825 10.048C265.753 11.136 266.217 12.416 266.217 13.888C266.217 14.912 265.993 15.792 265.545 16.528C265.129 17.264 264.553 17.824 263.817 18.208C263.081 18.56 262.265 18.736 261.369 18.736C260.121 18.736 259.161 18.416 258.489 17.776C257.817 17.104 257.481 16.32 257.481 15.424C257.481 14.112 257.913 12.992 258.777 12.064C259.673 11.136 260.665 10.432 261.753 9.952C261.625 9.76 261.449 9.616 261.225 9.52C261.001 9.392 260.777 9.328 260.553 9.328ZM246.249 34H237.753L243.609 13.168C243.769 12.656 243.865 12.256 243.897 11.968C243.929 11.68 243.881 11.472 243.753 11.344C243.657 11.216 243.465 11.152 243.177 11.152C242.697 11.152 242.249 11.376 241.833 11.824C241.417 12.24 240.985 13.024 240.537 14.176L239.433 17.104H238.521L239.865 13.36C240.281 12.24 240.777 11.312 241.353 10.576C241.961 9.84 242.681 9.296 243.513 8.944C244.377 8.592 245.353 8.416 246.441 8.416C247.689 8.416 248.681 8.624 249.417 9.04C250.153 9.424 250.681 9.952 251.001 10.624C251.321 11.296 251.481 12.032 251.481 12.832C251.481 13.6 251.385 14.368 251.193 15.136L246.249 34Z" fill="#1B3AFF" fill-opacity="0.5"/>
<path d="M33.48 5.104C33.8 3.92 33.928 3.056 33.864 2.512C33.832 1.936 33.56 1.552 33.048 1.36C32.536 1.136 31.736 1.008 30.648 0.975999L30.888 0.0159998C31.848 0.0479994 33.096 0.079999 34.632 0.111999C36.2 0.143998 37.768 0.159998 39.336 0.159998C41.16 0.159998 42.872 0.143998 44.472 0.111999C46.104 0.079999 47.416 0.0479994 48.408 0.0159998L48.168 0.975999C47.08 1.008 46.232 1.136 45.624 1.36C45.016 1.552 44.536 1.936 44.184 2.512C43.864 3.056 43.544 3.92 43.224 5.104L36.888 28.912C36.6 30.064 36.472 30.928 36.504 31.504C36.536 32.08 36.808 32.464 37.32 32.656C37.832 32.848 38.632 32.976 39.72 33.04L39.528 34C38.568 33.936 37.272 33.904 35.64 33.904C34.04 33.872 32.328 33.856 30.504 33.856C28.936 33.856 27.368 33.872 25.8 33.904C24.264 33.904 23 33.936 22.008 34L22.2 33.04C23.288 32.976 24.136 32.848 24.744 32.656C25.352 32.464 25.832 32.08 26.184 31.504C26.536 30.928 26.856 30.064 27.144 28.912L33.48 5.104ZM15.576 28.912C15.288 30.064 15.16 30.928 15.192 31.504C15.224 32.08 15.496 32.464 16.008 32.656C16.52 32.848 17.32 32.976 18.408 33.04L18.216 34C17.224 33.936 15.96 33.904 14.424 33.904C12.888 33.872 11.32 33.856 9.72 33.856C7.896 33.856 6.184 33.872 4.584 33.904C3.016 33.904 1.736 33.936 0.744 34L0.984 33.04C2.04 32.976 2.856 32.848 3.432 32.656C4.04 32.464 4.52 32.08 4.872 31.504C5.224 30.928 5.544 30.064 5.832 28.912L12.168 5.104C12.488 3.92 12.616 3.056 12.552 2.512C12.488 1.936 12.2 1.552 11.688 1.36C11.208 1.136 10.424 1.008 9.336 0.975999L9.576 0.0159998C10.504 0.0479994 11.768 0.079999 13.368 0.111999C15 0.143998 16.728 0.159998 18.552 0.159998C20.152 0.159998 21.688 0.143998 23.16 0.111999C24.664 0.079999 25.976 0.0479994 27.096 0.0159998L26.856 0.975999C25.768 1.008 24.92 1.136 24.312 1.36C23.704 1.552 23.224 1.936 22.872 2.512C22.552 3.056 22.232 3.92 21.912 5.104L15.576 28.912ZM13.32 32.128L12.744 31.312L36.312 1.024L36.888 1.936L13.32 32.128ZM67.0133 29.92C66.8853 30.4 66.7893 30.8 66.7253 31.12C66.6933 31.408 66.7253 31.616 66.8213 31.744C66.9493 31.872 67.1573 31.936 67.4453 31.936C67.9253 31.936 68.3733 31.728 68.7893 31.312C69.2373 30.864 69.6693 30.064 70.0853 28.912L71.1893 25.984H72.1013L70.7573 29.728C70.1173 31.52 69.1733 32.8 67.9253 33.568C66.6773 34.304 65.2853 34.672 63.7493 34.672C62.5973 34.672 61.6533 34.496 60.9173 34.144C60.1813 33.792 59.6373 33.344 59.2853 32.8C58.9013 32.16 58.7093 31.424 58.7093 30.592C58.7413 29.728 58.8693 28.848 59.0933 27.952L64.3733 9.088C66.0373 9.056 67.5893 8.992 69.0293 8.896C70.4693 8.8 71.8133 8.64 73.0613 8.416L67.0133 29.92ZM46.2293 33.76C47.2533 33.76 48.1493 33.424 48.9173 32.752C49.7173 32.08 50.4213 31.2 51.0293 30.112C51.6373 28.992 52.1653 27.792 52.6133 26.512C53.0613 25.2 53.4453 23.936 53.7653 22.72C54.0853 21.472 54.3573 20.384 54.5813 19.456C55.1573 17.184 55.6853 15.248 56.1653 13.648C56.6773 12.016 57.2853 10.784 57.9893 9.952C58.6933 9.088 59.6053 8.656 60.7253 8.656C61.9413 8.656 62.7893 9.264 63.2693 10.48C63.7493 11.696 63.7333 13.184 63.2213 14.944L62.6933 15.232C63.0133 13.536 62.9653 12.176 62.5493 11.152C62.1333 10.096 61.5253 9.568 60.7253 9.568C60.0213 9.568 59.4133 9.84 58.9013 10.384C58.3893 10.896 57.9413 11.648 57.5573 12.64C57.1733 13.6 56.8053 14.784 56.4532 16.192C56.1013 17.6 55.7013 19.184 55.2533 20.944C54.8373 22.672 54.3413 24.416 53.7653 26.176C53.1893 27.936 52.5013 29.52 51.7013 30.928C50.9013 32.336 49.9093 33.36 48.7253 34C48.2133 34.288 47.7173 34.464 47.2373 34.528C46.7573 34.624 46.3413 34.672 45.9893 34.672C44.3253 34.672 43.0772 34.176 42.2452 33.184C41.4132 32.192 40.9972 31.008 40.9972 29.632C40.9972 28.096 41.4772 26.912 42.4372 26.08C43.3652 25.248 44.5013 24.832 45.8453 24.832C47.0933 24.832 48.0533 25.152 48.7253 25.792C49.3973 26.432 49.7333 27.248 49.7333 28.24C49.7333 29.424 49.3173 30.496 48.4853 31.456C47.6533 32.384 46.6453 33.104 45.4613 33.616C45.5253 33.648 45.6213 33.68 45.7493 33.712C45.9093 33.744 46.0693 33.76 46.2293 33.76ZM90.5801 9.376C90.0361 9.376 89.3961 9.84 88.6601 10.768C87.9241 11.664 87.1721 12.88 86.4041 14.416C85.6361 15.952 84.9161 17.664 84.2441 19.552C83.6041 21.44 83.0761 23.376 82.6601 25.36C82.2761 27.344 82.0841 29.232 82.0841 31.024C82.0841 32.016 82.1481 32.72 82.2761 33.136C82.4361 33.52 82.6761 33.712 82.9961 33.712C83.5081 33.712 84.1161 33.28 84.8201 32.416C85.5561 31.552 86.2921 30.384 87.0281 28.912C87.7961 27.44 88.5001 25.776 89.1401 23.92C89.8121 22.064 90.3561 20.128 90.7721 18.112C91.1881 16.064 91.3961 14.08 91.3961 12.16C91.3961 10.944 91.3161 10.176 91.1561 9.856C90.9961 9.536 90.8041 9.376 90.5801 9.376ZM74.1161 26.512C74.1161 25.008 74.3241 23.424 74.7401 21.76C75.1561 20.096 75.7961 18.48 76.6601 16.912C77.5241 15.312 78.6121 13.872 79.9241 12.592C81.2681 11.312 82.8361 10.304 84.6281 9.568C86.4521 8.8 88.5161 8.416 90.8201 8.416C93.6041 8.416 95.7161 9.12 97.1561 10.528C98.6281 11.936 99.3641 13.952 99.3641 16.576C99.3641 18.08 99.1561 19.664 98.7401 21.328C98.3241 22.992 97.6841 24.624 96.8201 26.224C95.9561 27.792 94.8521 29.216 93.5081 30.496C92.1961 31.776 90.6281 32.8 88.8041 33.568C87.0121 34.304 84.9641 34.672 82.6601 34.672C79.8761 34.672 77.7481 33.968 76.2761 32.56C74.8361 31.152 74.1161 29.136 74.1161 26.512ZM107.699 20.608H120.659V21.568H107.699V20.608ZM109.187 34H100.691L106.547 13.168C106.707 12.656 106.803 12.256 106.835 11.968C106.867 11.68 106.819 11.472 106.691 11.344C106.595 11.216 106.403 11.152 106.115 11.152C105.635 11.152 105.187 11.376 104.771 11.824C104.355 12.24 103.923 13.024 103.475 14.176L102.371 17.104H101.459L102.803 13.36C103.219 12.24 103.715 11.312 104.291 10.576C104.899 9.84 105.619 9.296 106.451 8.944C107.315 8.592 108.291 8.416 109.379 8.416C110.627 8.416 111.619 8.624 112.355 9.04C113.091 9.424 113.619 9.952 113.939 10.624C114.259 11.296 114.419 12.032 114.419 12.832C114.419 13.6 114.323 14.368 114.131 15.136L109.187 34ZM123.251 29.92C123.027 30.656 122.931 31.184 122.963 31.504C123.027 31.792 123.267 31.936 123.683 31.936C124.163 31.936 124.611 31.728 125.027 31.312C125.475 30.864 125.907 30.064 126.323 28.912L127.427 25.984H128.339L126.995 29.728C126.579 30.912 126.003 31.872 125.267 32.608C124.563 33.344 123.763 33.872 122.867 34.192C122.003 34.512 121.091 34.672 120.131 34.672C119.011 34.672 118.099 34.496 117.395 34.144C116.723 33.824 116.211 33.376 115.859 32.8C115.475 32.16 115.283 31.424 115.283 30.592C115.315 29.728 115.443 28.848 115.667 27.952L120.611 9.088C122.275 9.056 123.827 8.992 125.267 8.896C126.707 8.8 128.051 8.64 129.299 8.416L123.251 29.92ZM178.214 0.159998H182.918C184.614 0.159998 186.214 0.143998 187.718 0.111999C189.254 0.079999 190.614 0.0479994 191.798 0.0159998L191.558 0.975999C190.47 1.008 189.622 1.136 189.014 1.36C188.406 1.552 187.926 1.936 187.574 2.512C187.254 3.056 186.934 3.92 186.614 5.104L180.278 28.912C179.99 30.064 179.862 30.928 179.894 31.504C179.958 32.08 180.246 32.464 180.758 32.656C181.27 32.848 182.054 32.976 183.11 33.04L182.918 34C181.734 33.936 180.39 33.904 178.886 33.904C177.382 33.872 175.782 33.856 174.086 33.856C172.358 33.856 170.71 33.872 169.142 33.904C167.606 33.904 166.374 33.936 165.446 34L165.638 33.04C166.758 32.976 167.606 32.848 168.182 32.656C168.79 32.464 169.27 32.08 169.622 31.504C169.974 30.928 170.294 30.064 170.582 28.912L177.542 3.04L157.622 34.24H156.566L152.294 6.208L146.726 27.424C146.502 28.32 146.39 29.2 146.39 30.064C146.422 30.896 146.742 31.584 147.35 32.128C147.958 32.672 149.046 32.976 150.614 33.04L150.422 34C150.038 33.968 149.494 33.952 148.79 33.952C148.118 33.92 147.414 33.904 146.678 33.904C145.942 33.872 145.286 33.856 144.71 33.856C143.878 33.856 143.046 33.872 142.214 33.904C141.382 33.904 140.694 33.936 140.15 34L140.342 33.04C141.462 32.976 142.358 32.672 143.03 32.128C143.734 31.584 144.294 30.896 144.71 30.064C145.126 29.2 145.446 28.32 145.67 27.424L151.622 5.104C151.942 3.92 152.07 3.056 152.006 2.512C151.942 1.936 151.654 1.552 151.142 1.36C150.662 1.136 149.878 1.008 148.79 0.975999L149.03 0.0159998C149.926 0.0479994 151.094 0.079999 152.534 0.111999C154.006 0.143998 155.542 0.159998 157.142 0.159998C157.942 0.159998 158.726 0.143998 159.494 0.111999C160.262 0.079999 160.95 0.0479994 161.558 0.0159998L164.342 21.904L178.214 0.159998ZM196.214 31.408C196.534 31.408 196.87 31.28 197.222 31.024C197.574 30.768 197.942 30.336 198.326 29.728C198.71 29.088 199.126 28.208 199.574 27.088C200.022 25.968 200.502 24.528 201.014 22.768L199.766 28C199.254 29.696 198.598 31.04 197.798 32.032C197.03 32.992 196.15 33.664 195.158 34.048C194.198 34.464 193.158 34.672 192.038 34.672C190.022 34.672 188.518 34.16 187.526 33.136C186.566 32.08 186.086 30.592 186.086 28.672C186.086 26.816 186.39 24.928 186.998 23.008C187.638 21.088 188.486 19.264 189.542 17.536C190.63 15.776 191.83 14.224 193.142 12.88C194.486 11.504 195.878 10.416 197.318 9.616C198.758 8.816 200.15 8.416 201.494 8.416C202.518 8.416 203.302 8.736 203.846 9.376C204.422 10.016 204.63 11.152 204.47 12.784L203.942 13.072C204.102 12.272 204.102 11.696 203.942 11.344C203.782 10.96 203.51 10.768 203.126 10.768C202.582 10.768 201.958 11.12 201.254 11.824C200.582 12.496 199.878 13.44 199.142 14.656C198.438 15.84 197.766 17.216 197.126 18.784C196.518 20.32 196.022 21.952 195.638 23.68C195.286 25.408 195.11 27.136 195.11 28.864C195.11 29.76 195.19 30.416 195.35 30.832C195.51 31.216 195.798 31.408 196.214 31.408ZM205.094 9.136C206.854 9.104 208.406 9.04 209.75 8.944C211.126 8.816 212.47 8.64 213.782 8.416L207.302 29.92C207.142 30.432 207.062 30.848 207.062 31.168C207.094 31.456 207.174 31.664 207.302 31.792C207.462 31.888 207.654 31.936 207.878 31.936C208.166 31.936 208.534 31.776 208.982 31.456C209.43 31.104 209.91 30.256 210.422 28.912L211.43 26.224H212.342L211.142 29.728C210.694 31.072 210.086 32.096 209.318 32.8C208.582 33.504 207.766 33.984 206.87 34.24C206.006 34.528 205.142 34.672 204.278 34.672C202.326 34.672 200.934 34.112 200.102 32.992C199.622 32.32 199.35 31.44 199.286 30.352C199.254 29.264 199.462 27.952 199.91 26.416L205.094 9.136ZM232.695 9.376C231.511 9.376 230.359 9.888 229.239 10.912C228.119 11.904 227.127 13.248 226.263 14.944C225.399 16.608 224.711 18.48 224.199 20.56C223.687 22.608 223.431 24.688 223.431 26.8C223.431 28.528 223.783 29.776 224.487 30.544C225.191 31.312 226.119 31.696 227.271 31.696C228.199 31.696 229.143 31.424 230.103 30.88C231.063 30.336 232.039 29.328 233.031 27.856L233.991 28.24C233.319 29.296 232.471 30.32 231.447 31.312C230.455 32.304 229.255 33.12 227.847 33.76C226.471 34.368 224.855 34.672 222.999 34.672C220.567 34.672 218.535 34.064 216.903 32.848C215.271 31.632 214.455 29.712 214.455 27.088C214.455 25.424 214.711 23.728 215.223 22C215.767 20.24 216.535 18.56 217.527 16.96C218.551 15.328 219.783 13.872 221.223 12.592C222.663 11.312 224.295 10.304 226.119 9.568C227.943 8.8 229.927 8.416 232.071 8.416C234.055 8.416 235.591 8.912 236.679 9.904C237.767 10.896 238.311 12.064 238.311 13.408C238.311 14.432 238.055 15.424 237.543 16.384C237.031 17.344 236.343 18.144 235.479 18.784C234.647 19.392 233.719 19.696 232.695 19.696C231.863 19.696 231.111 19.408 230.439 18.832C229.767 18.256 229.431 17.424 229.431 16.336C229.431 14.768 229.927 13.408 230.919 12.256C231.911 11.104 233.047 10.336 234.327 9.952C234.103 9.76 233.863 9.616 233.607 9.52C233.351 9.424 233.047 9.376 232.695 9.376ZM259.641 29.92C259.513 30.688 259.497 31.216 259.593 31.504C259.689 31.792 259.897 31.936 260.217 31.936C260.505 31.936 260.873 31.776 261.321 31.456C261.769 31.104 262.249 30.256 262.761 28.912L263.769 26.224H264.681L263.481 29.728C263.033 31.008 262.377 32.016 261.513 32.752C260.681 33.456 259.769 33.952 258.777 34.24C257.785 34.528 256.841 34.672 255.945 34.672C254.025 34.672 252.665 34.16 251.865 33.136C251.097 32.08 250.937 30.528 251.385 28.48L251.961 25.936C252.345 24.304 252.313 23.152 251.865 22.48C251.417 21.776 250.377 21.328 248.745 21.136V20.944C250.345 20.848 251.865 20.864 253.305 20.992C254.777 21.088 256.057 21.376 257.145 21.856C258.265 22.336 259.081 23.072 259.593 24.064C260.137 25.056 260.265 26.368 259.977 28L259.641 29.92ZM260.553 9.328C260.105 9.328 259.705 9.392 259.353 9.52C259.001 9.648 258.665 9.84 258.345 10.096C257.769 10.608 257.321 11.312 257.001 12.208C256.681 13.104 256.361 14.064 256.041 15.088C255.721 16.112 255.305 17.088 254.793 18.016C254.313 18.944 253.641 19.696 252.777 20.272C251.913 20.848 250.761 21.12 249.321 21.088L248.841 21.136L248.937 20.608C250.345 20.512 251.449 20.176 252.249 19.6C253.081 18.992 253.705 18.24 254.121 17.344C254.569 16.448 254.937 15.504 255.225 14.512C255.513 13.52 255.817 12.592 256.137 11.728C256.489 10.832 256.985 10.096 257.625 9.52C258.105 9.104 258.633 8.816 259.209 8.656C259.785 8.496 260.281 8.416 260.697 8.416C262.553 8.416 263.929 8.96 264.825 10.048C265.753 11.136 266.217 12.416 266.217 13.888C266.217 14.912 265.993 15.792 265.545 16.528C265.129 17.264 264.553 17.824 263.817 18.208C263.081 18.56 262.265 18.736 261.369 18.736C260.121 18.736 259.161 18.416 258.489 17.776C257.817 17.104 257.481 16.32 257.481 15.424C257.481 14.112 257.913 12.992 258.777 12.064C259.673 11.136 260.665 10.432 261.753 9.952C261.625 9.76 261.449 9.616 261.225 9.52C261.001 9.392 260.777 9.328 260.553 9.328ZM246.249 34H237.753L243.609 13.168C243.769 12.656 243.865 12.256 243.897 11.968C243.929 11.68 243.881 11.472 243.753 11.344C243.657 11.216 243.465 11.152 243.177 11.152C242.697 11.152 242.249 11.376 241.833 11.824C241.417 12.24 240.985 13.024 240.537 14.176L239.433 17.104H238.521L239.865 13.36C240.281 12.24 240.777 11.312 241.353 10.576C241.961 9.84 242.681 9.296 243.513 8.944C244.377 8.592 245.353 8.416 246.441 8.416C247.689 8.416 248.681 8.624 249.417 9.04C250.153 9.424 250.681 9.952 251.001 10.624C251.321 11.296 251.481 12.032 251.481 12.832C251.481 13.6 251.385 14.368 251.193 15.136L246.249 34Z" fill="#8D9DFF"/>
<path d="M285.777 30.832C283.153 28.208 281.841 25.104 281.841 21.52C281.841 17.936 283.153 14.848 285.777 12.256C288.401 9.632 291.569 8.32 295.281 8.32C299.921 8.32 303.553 10.048 306.177 13.504C307.265 15.04 308.033 16.752 308.481 18.64H300.081C299.889 18.16 299.537 17.6 299.025 16.96C297.969 15.84 296.721 15.28 295.281 15.28C293.873 15.28 292.673 15.856 291.681 17.008C290.721 18.16 290.241 19.664 290.241 21.52C290.241 23.376 290.721 24.88 291.681 26.032C292.673 27.184 293.873 27.76 295.281 27.76C296.945 27.76 298.225 27.2 299.121 26.08C299.473 25.664 299.793 25.104 300.081 24.4H308.481C308.033 26.32 307.265 28.048 306.177 29.584C303.649 33.008 300.017 34.72 295.281 34.72C291.569 34.72 288.401 33.424 285.777 30.832ZM314.935 30.832C312.247 28.24 310.903 25.136 310.903 21.52C310.903 17.904 312.247 14.8 314.935 12.208C317.623 9.616 320.919 8.32 324.823 8.32C328.727 8.32 332.023 9.616 334.711 12.208C337.399 14.8 338.743 17.904 338.743 21.52C338.743 25.136 337.399 28.24 334.711 30.832C332.023 33.424 328.727 34.72 324.823 34.72C320.919 34.72 317.623 33.424 314.935 30.832ZM320.839 17.008C319.815 18.128 319.303 19.632 319.303 21.52C319.303 23.408 319.815 24.928 320.839 26.08C321.895 27.2 323.223 27.76 324.823 27.76C326.423 27.76 327.735 27.2 328.759 26.08C329.815 24.928 330.343 23.408 330.343 21.52C330.343 19.632 329.815 18.128 328.759 17.008C327.735 15.856 326.423 15.28 324.823 15.28C323.223 15.28 321.895 15.856 320.839 17.008ZM340.898 25.84H349.058C349.218 26.32 349.49 26.768 349.874 27.184C350.61 28.048 351.778 28.48 353.378 28.48C355.778 28.48 356.978 27.696 356.978 26.128C356.978 24.656 355.778 23.92 353.378 23.92H350.21V18.64H353.138C354.322 18.64 355.138 18.48 355.586 18.16C356.034 17.808 356.258 17.296 356.258 16.624C356.258 16.016 355.986 15.52 355.442 15.136C354.93 14.752 354.162 14.56 353.138 14.56C351.89 14.56 350.898 14.928 350.162 15.664C349.842 15.984 349.634 16.336 349.538 16.72H341.378C341.826 15.184 342.546 13.792 343.538 12.544C345.778 9.728 349.138 8.32 353.618 8.32C357.138 8.32 359.81 9.008 361.634 10.384C363.49 11.76 364.418 13.472 364.418 15.52C364.418 17.344 363.698 18.72 362.258 19.648C361.682 20.064 360.962 20.368 360.098 20.56V21.04C361.058 21.232 361.89 21.568 362.594 22.048C364.29 23.104 365.138 24.72 365.138 26.896C365.138 29.008 364.146 30.848 362.162 32.416C360.21 33.952 357.282 34.72 353.378 34.72C348.641 34.72 345.154 33.248 342.914 30.304C341.89 28.992 341.218 27.504 340.898 25.84ZM366.803 38.8V27.04H369.683L374.243 9.04H388.883L393.443 27.04H396.323V38.8H388.643V34H374.483V38.8H366.803ZM377.843 27.04H385.283L382.643 16H380.483L377.843 27.04ZM401.219 31.12C399.075 28.688 398.003 25.488 398.003 21.52C398.003 17.552 399.075 14.368 401.219 11.968C403.363 9.536 405.971 8.32 409.043 8.32C411.027 8.32 412.899 9.008 414.659 10.384C415.395 10.992 416.003 11.664 416.483 12.4H416.963V9.04H425.123V34H416.963V30.64H416.483C416.035 31.408 415.427 32.096 414.659 32.704C412.931 34.048 411.059 34.72 409.043 34.72C405.971 34.72 403.363 33.52 401.219 31.12ZM407.843 16.912C406.883 18 406.403 19.536 406.403 21.52C406.403 23.504 406.883 25.04 407.843 26.128C408.803 27.216 410.083 27.76 411.683 27.76C413.283 27.76 414.563 27.216 415.523 26.128C416.483 25.04 416.963 23.504 416.963 21.52C416.963 19.536 416.483 18 415.523 16.912C414.563 15.824 413.283 15.28 411.683 15.28C410.083 15.28 408.803 15.824 407.843 16.912ZM427.5 34L433.74 9.04H448.62L454.86 34H446.7L442.14 16H440.22L435.66 34H427.5ZM470.728 34V9.04H478.888V19.12L478.408 22.96H478.888L487.768 9.04H496.168V34H488.008V23.92L488.488 20.08H488.008L479.128 34H470.728ZM514.416 34V9.04H539.136V34H530.976V16H522.576V34H514.416ZM543.947 43.12V9.04H552.107V12.4H552.587C553.035 11.664 553.643 10.992 554.411 10.384C556.171 9.008 558.043 8.32 560.027 8.32C563.099 8.32 565.707 9.536 567.851 11.968C569.995 14.368 571.067 17.552 571.067 21.52C571.067 25.488 569.995 28.688 567.851 31.12C565.707 33.52 563.099 34.72 560.027 34.72C558.011 34.72 556.139 34.048 554.411 32.704C553.643 32.096 553.035 31.408 552.587 30.64H552.107V43.12H543.947ZM553.547 16.912C552.587 18 552.107 19.536 552.107 21.52C552.107 23.504 552.587 25.04 553.547 26.128C554.507 27.216 555.787 27.76 557.387 27.76C558.987 27.76 560.267 27.216 561.227 26.128C562.187 25.04 562.667 23.504 562.667 21.52C562.667 19.536 562.187 18 561.227 16.912C560.267 15.824 558.987 15.28 557.387 15.28C555.787 15.28 554.507 15.824 553.547 16.912ZM577.716 30.832C575.028 28.24 573.684 25.136 573.684 21.52C573.684 17.904 575.028 14.8 577.716 12.208C580.404 9.616 583.7 8.32 587.604 8.32C591.508 8.32 594.804 9.616 597.492 12.208C600.18 14.8 601.524 17.904 601.524 21.52C601.524 25.136 600.18 28.24 597.492 30.832C594.804 33.424 591.508 34.72 587.604 34.72C583.7 34.72 580.404 33.424 577.716 30.832ZM583.62 17.008C582.596 18.128 582.084 19.632 582.084 21.52C582.084 23.408 582.596 24.928 583.62 26.08C584.676 27.2 586.004 27.76 587.604 27.76C589.204 27.76 590.516 27.2 591.54 26.08C592.596 24.928 593.124 23.408 593.124 21.52C593.124 19.632 592.596 18.128 591.54 17.008C590.516 15.856 589.204 15.28 587.604 15.28C586.004 15.28 584.676 15.856 583.62 17.008ZM602.959 38.8V27.04H605.839L610.399 9.04H625.039L629.599 27.04H632.479V38.8H624.799V34H610.639V38.8H602.959ZM613.999 27.04H621.439L618.799 16H616.639L613.999 27.04ZM637.375 31.12C635.231 28.688 634.159 25.488 634.159 21.52C634.159 17.552 635.231 14.368 637.375 11.968C639.519 9.536 642.127 8.32 645.199 8.32C647.183 8.32 649.055 9.008 650.815 10.384C651.551 10.992 652.159 11.664 652.639 12.4H653.119V9.04H661.279V34H653.119V30.64H652.639C652.191 31.408 651.583 32.096 650.815 32.704C649.087 34.048 647.215 34.72 645.199 34.72C642.127 34.72 639.519 33.52 637.375 31.12ZM643.999 16.912C643.039 18 642.559 19.536 642.559 21.52C642.559 23.504 643.039 25.04 643.999 26.128C644.959 27.216 646.239 27.76 647.839 27.76C649.439 27.76 650.719 27.216 651.679 26.128C652.639 25.04 653.119 23.504 653.119 21.52C653.119 19.536 652.639 18 651.679 16.912C650.719 15.824 649.439 15.28 647.839 15.28C646.239 15.28 644.959 15.824 643.999 16.912ZM663.656 34L669.896 9.04H684.776L691.016 34H682.856L678.296 16H676.376L671.816 34H663.656ZM8.136 92.832C5.512 90.208 4.2 87.104 4.2 83.52C4.2 79.936 5.512 76.848 8.136 74.256C10.76 71.632 13.928 70.32 17.64 70.32C22.28 70.32 25.912 72.048 28.536 75.504C29.624 77.04 30.392 78.752 30.84 80.64H22.44C22.248 80.16 21.896 79.6 21.384 78.96C20.328 77.84 19.08 77.28 17.64 77.28C16.232 77.28 15.032 77.856 14.04 79.008C13.08 80.16 12.6 81.664 12.6 83.52C12.6 85.376 13.08 86.88 14.04 88.032C15.032 89.184 16.232 89.76 17.64 89.76C19.304 89.76 20.584 89.2 21.48 88.08C21.832 87.664 22.152 87.104 22.44 86.4H30.84C30.392 88.32 29.624 90.048 28.536 91.584C26.008 95.008 22.376 96.72 17.64 96.72C13.928 96.72 10.76 95.424 8.136 92.832ZM34.4625 96V71.04H48.8625C51.6145 71.04 53.7425 71.632 55.2465 72.816C56.7505 73.968 57.5025 75.376 57.5025 77.04C57.5025 78.96 56.7825 80.448 55.3425 81.504C54.7665 81.952 54.0465 82.304 53.1825 82.56V83.04C54.1105 83.168 55.0225 83.472 55.9185 83.952C57.7745 84.976 58.7025 86.592 58.7025 88.8C58.7025 90.944 57.8705 92.688 56.2065 94.032C54.5425 95.344 52.0945 96 48.8625 96H34.4625ZM42.6225 80.4H47.4225C48.8625 80.4 49.5825 79.76 49.5825 78.48C49.5825 77.2 48.8625 76.56 47.4225 76.56H42.6225V80.4ZM42.6225 90.48H47.9025C48.7345 90.48 49.3745 90.272 49.8225 89.856C50.3025 89.408 50.5425 88.816 50.5425 88.08C50.5425 87.344 50.3025 86.768 49.8225 86.352C49.3745 85.904 48.7345 85.68 47.9025 85.68H42.6225V90.48ZM65.3726 92.832C62.6846 90.24 61.3406 87.136 61.3406 83.52C61.3406 79.904 62.6846 76.8 65.3726 74.208C68.0606 71.616 71.3566 70.32 75.2606 70.32C79.1646 70.32 82.4606 71.616 85.1486 74.208C87.8366 76.8 89.1806 79.904 89.1806 83.52C89.1806 87.136 87.8366 90.24 85.1486 92.832C82.4606 95.424 79.1646 96.72 75.2606 96.72C71.3566 96.72 68.0606 95.424 65.3726 92.832ZM71.2766 79.008C70.2526 80.128 69.7406 81.632 69.7406 83.52C69.7406 85.408 70.2526 86.928 71.2766 88.08C72.3326 89.2 73.6606 89.76 75.2606 89.76C76.8606 89.76 78.1726 89.2 79.1966 88.08C80.2526 86.928 80.7806 85.408 80.7806 83.52C80.7806 81.632 80.2526 80.128 79.1966 79.008C78.1726 77.856 76.8606 77.28 75.2606 77.28C73.6606 77.28 72.3326 77.856 71.2766 79.008ZM92.775 96V71.04H100.455V80.4H102.855C103.463 77.488 104.903 75.088 107.175 73.2C109.479 71.28 112.359 70.32 115.815 70.32C119.623 70.32 122.807 71.584 125.367 74.112C127.959 76.64 129.255 79.776 129.255 83.52C129.255 87.264 127.959 90.4 125.367 92.928C122.807 95.456 119.623 96.72 115.815 96.72C112.455 96.72 109.575 95.728 107.175 93.744C104.775 91.76 103.335 89.472 102.855 86.88H100.455V96H92.775ZM112.167 78.912C111.239 80 110.775 81.536 110.775 83.52C110.775 85.504 111.239 87.04 112.167 88.128C113.095 89.216 114.311 89.76 115.815 89.76C117.319 89.76 118.535 89.216 119.463 88.128C120.391 87.04 120.855 85.504 120.855 83.52C120.855 81.536 120.391 80 119.463 78.912C118.535 77.824 117.319 77.28 115.815 77.28C114.311 77.28 113.095 77.824 112.167 78.912ZM146.541 96V71.04H171.261V96H163.101V78H154.701V96H146.541ZM178.856 92.832C176.2 90.24 174.872 87.136 174.872 83.52C174.872 79.904 176.2 76.8 178.856 74.208C181.512 71.616 184.744 70.32 188.552 70.32C192.424 70.32 195.672 71.616 198.296 74.208C200.92 76.8 202.232 79.904 202.232 83.52V84.96H183.272C183.528 86.656 184.104 87.968 185 88.896C185.928 89.792 187.112 90.24 188.552 90.24C190.248 90.24 191.528 89.808 192.392 88.944C192.776 88.592 193.096 88.144 193.352 87.6H201.992C201.416 89.36 200.552 90.88 199.4 92.16C196.872 95.2 193.256 96.72 188.552 96.72C184.744 96.72 181.512 95.424 178.856 92.832ZM183.512 80.88H193.592C193.304 79.728 192.712 78.768 191.816 78C190.92 77.2 189.832 76.8 188.552 76.8C187.272 76.8 186.184 77.2 185.288 78C184.392 78.768 183.8 79.728 183.512 80.88ZM206.072 105.12V71.04H214.232V74.4H214.712C215.16 73.664 215.768 72.992 216.536 72.384C218.296 71.008 220.168 70.32 222.152 70.32C225.224 70.32 227.832 71.536 229.976 73.968C232.12 76.368 233.192 79.552 233.192 83.52C233.192 87.488 232.12 90.688 229.976 93.12C227.832 95.52 225.224 96.72 222.152 96.72C220.136 96.72 218.264 96.048 216.536 94.704C215.768 94.096 215.16 93.408 214.712 92.64H214.232V105.12H206.072ZM215.672 78.912C214.712 80 214.232 81.536 214.232 83.52C214.232 85.504 214.712 87.04 215.672 88.128C216.632 89.216 217.912 89.76 219.512 89.76C221.112 89.76 222.392 89.216 223.352 88.128C224.312 87.04 224.792 85.504 224.792 83.52C224.792 81.536 224.312 80 223.352 78.912C222.392 77.824 221.112 77.28 219.512 77.28C217.912 77.28 216.632 77.824 215.672 78.912ZM237.009 96V71.04H251.409C254.161 71.04 256.289 71.632 257.793 72.816C259.297 73.968 260.049 75.376 260.049 77.04C260.049 78.96 259.329 80.448 257.889 81.504C257.313 81.952 256.593 82.304 255.729 82.56V83.04C256.657 83.168 257.569 83.472 258.465 83.952C260.321 84.976 261.249 86.592 261.249 88.8C261.249 90.944 260.417 92.688 258.753 94.032C257.089 95.344 254.641 96 251.409 96H237.009ZM245.169 80.4H249.969C251.409 80.4 252.129 79.76 252.129 78.48C252.129 77.2 251.409 76.56 249.969 76.56H245.169V80.4ZM245.169 90.48H250.449C251.281 90.48 251.921 90.272 252.369 89.856C252.849 89.408 253.089 88.816 253.089 88.08C253.089 87.344 252.849 86.768 252.369 86.352C251.921 85.904 251.281 85.68 250.449 85.68H245.169V90.48ZM263.168 71.04H271.568L275.888 89.04H277.328L282.128 71.04H290.528L280.928 105.12H272.528L275.168 96H269.648L263.168 71.04ZM292.697 96V71.04H300.377V80.4H302.777C303.385 77.488 304.825 75.088 307.097 73.2C309.401 71.28 312.281 70.32 315.737 70.32C319.545 70.32 322.729 71.584 325.289 74.112C327.881 76.64 329.177 79.776 329.177 83.52C329.177 87.264 327.881 90.4 325.289 92.928C322.729 95.456 319.545 96.72 315.737 96.72C312.377 96.72 309.497 95.728 307.097 93.744C304.697 91.76 303.257 89.472 302.777 86.88H300.377V96H292.697ZM312.089 78.912C311.161 80 310.697 81.536 310.697 83.52C310.697 85.504 311.161 87.04 312.089 88.128C313.017 89.216 314.233 89.76 315.737 89.76C317.241 89.76 318.457 89.216 319.385 88.128C320.313 87.04 320.777 85.504 320.777 83.52C320.777 81.536 320.313 80 319.385 78.912C318.457 77.824 317.241 77.28 315.737 77.28C314.233 77.28 313.017 77.824 312.089 78.912ZM346.463 96V71.04H360.863C363.615 71.04 365.743 71.632 367.247 72.816C368.751 73.968 369.503 75.376 369.503 77.04C369.503 78.96 368.783 80.448 367.343 81.504C366.767 81.952 366.047 82.304 365.183 82.56V83.04C366.111 83.168 367.023 83.472 367.919 83.952C369.775 84.976 370.703 86.592 370.703 88.8C370.703 90.944 369.871 92.688 368.207 94.032C366.543 95.344 364.095 96 360.863 96H346.463ZM354.623 80.4H359.423C360.863 80.4 361.583 79.76 361.583 78.48C361.583 77.2 360.863 76.56 359.423 76.56H354.623V80.4ZM354.623 90.48H359.903C360.735 90.48 361.375 90.272 361.823 89.856C362.303 89.408 362.543 88.816 362.543 88.08C362.543 87.344 362.303 86.768 361.823 86.352C361.375 85.904 360.735 85.68 359.903 85.68H354.623V90.48ZM374.541 96V71.04H382.701V81.12L382.221 84.96H382.701L391.581 71.04H399.981V96H391.821V85.92L392.301 82.08H391.821L382.941 96H374.541ZM402.615 100.8V89.04H405.495L410.055 71.04H424.695L429.255 89.04H432.135V100.8H424.455V96H410.295V100.8H402.615ZM413.655 89.04H421.095L418.455 78H416.295L413.655 89.04ZM437.559 92.832C434.903 90.24 433.575 87.136 433.575 83.52C433.575 79.904 434.903 76.8 437.559 74.208C440.215 71.616 443.447 70.32 447.255 70.32C451.127 70.32 454.375 71.616 456.999 74.208C459.623 76.8 460.935 79.904 460.935 83.52V84.96H441.975C442.231 86.656 442.807 87.968 443.703 88.896C444.631 89.792 445.815 90.24 447.255 90.24C448.951 90.24 450.231 89.808 451.095 88.944C451.479 88.592 451.799 88.144 452.055 87.6H460.695C460.119 89.36 459.255 90.88 458.103 92.16C455.575 95.2 451.959 96.72 447.255 96.72C443.447 96.72 440.215 95.424 437.559 92.832ZM442.215 80.88H452.295C452.007 79.728 451.415 78.768 450.519 78C449.623 77.2 448.535 76.8 447.255 76.8C445.975 76.8 444.887 77.2 443.991 78C443.095 78.768 442.503 79.728 442.215 80.88ZM467.607 92.832C464.919 90.24 463.575 87.136 463.575 83.52C463.575 79.904 464.919 76.8 467.607 74.208C470.295 71.616 473.591 70.32 477.495 70.32C481.399 70.32 484.695 71.616 487.383 74.208C490.071 76.8 491.415 79.904 491.415 83.52C491.415 87.136 490.071 90.24 487.383 92.832C484.695 95.424 481.399 96.72 477.495 96.72C473.591 96.72 470.295 95.424 467.607 92.832ZM473.511 79.008C472.487 80.128 471.975 81.632 471.975 83.52C471.975 85.408 472.487 86.928 473.511 88.08C474.567 89.2 475.895 89.76 477.495 89.76C479.095 89.76 480.407 89.2 481.431 88.08C482.487 86.928 483.015 85.408 483.015 83.52C483.015 81.632 482.487 80.128 481.431 79.008C480.407 77.856 479.095 77.28 477.495 77.28C475.895 77.28 474.567 77.856 473.511 79.008ZM495.009 96V71.04H503.169V81.12L502.689 84.96H503.169L512.049 71.04H520.449V96H512.289V85.92L512.769 82.08H512.289L503.409 96H495.009ZM525.244 96V71.04H544.924V78H533.404V96H525.244ZM547.791 105.12V71.04H555.951V74.4H556.431C556.879 73.664 557.487 72.992 558.255 72.384C560.015 71.008 561.887 70.32 563.871 70.32C566.943 70.32 569.551 71.536 571.695 73.968C573.839 76.368 574.911 79.552 574.911 83.52C574.911 87.488 573.839 90.688 571.695 93.12C569.551 95.52 566.943 96.72 563.871 96.72C561.855 96.72 559.983 96.048 558.255 94.704C557.487 94.096 556.879 93.408 556.431 92.64H555.951V105.12H547.791ZM557.391 78.912C556.431 80 555.951 81.536 555.951 83.52C555.951 85.504 556.431 87.04 557.391 88.128C558.351 89.216 559.631 89.76 561.231 89.76C562.831 89.76 564.111 89.216 565.071 88.128C566.031 87.04 566.511 85.504 566.511 83.52C566.511 81.536 566.031 80 565.071 78.912C564.111 77.824 562.831 77.28 561.231 77.28C559.631 77.28 558.351 77.824 557.391 78.912ZM576.105 71.04H584.505L588.825 89.04H590.265L595.065 71.04H603.465L593.865 105.12H585.465L588.105 96H582.585L576.105 71.04ZM619.088 96V71.04H633.488C636.24 71.04 638.368 71.632 639.872 72.816C641.376 73.968 642.128 75.376 642.128 77.04C642.128 78.96 641.408 80.448 639.968 81.504C639.392 81.952 638.672 82.304 637.808 82.56V83.04C638.736 83.168 639.648 83.472 640.544 83.952C642.4 84.976 643.328 86.592 643.328 88.8C643.328 90.944 642.496 92.688 640.832 94.032C639.168 95.344 636.72 96 633.488 96H619.088ZM627.248 80.4H632.048C633.488 80.4 634.208 79.76 634.208 78.48C634.208 77.2 633.488 76.56 632.048 76.56H627.248V80.4ZM627.248 90.48H632.528C633.36 90.48 634 90.272 634.448 89.856C634.928 89.408 635.168 88.816 635.168 88.08C635.168 87.344 634.928 86.768 634.448 86.352C634 85.904 633.36 85.68 632.528 85.68H627.248V90.48ZM659.659 76.56V67.2L666.619 62.4H674.779V96H665.659V72.48L659.659 76.56ZM679.586 96V88.32L690.866 81.36C693.522 79.76 695.378 78.368 696.434 77.184C697.522 75.968 698.066 74.72 698.066 73.44C698.066 72.32 697.666 71.408 696.866 70.704C696.098 69.968 695.058 69.6 693.746 69.6C691.73 69.6 690.242 70.24 689.282 71.52C688.898 72.032 688.626 72.672 688.466 73.44H679.346C679.666 71.264 680.418 69.264 681.602 67.44C684.226 63.44 688.274 61.44 693.746 61.44C697.97 61.44 701.298 62.528 703.73 64.704C706.194 66.88 707.426 69.632 707.426 72.96C707.426 75.712 706.642 78.08 705.074 80.064C703.506 82.016 701.17 83.888 698.066 85.68L694.706 87.6L692.786 88.32V88.8L696.146 88.32H707.426V96H679.586ZM722.812 96L729.053 71.04H743.933L750.173 96H742.013L737.453 78H735.533L730.973 96H722.812ZM755.372 92.832C752.716 90.24 751.388 87.136 751.388 83.52C751.388 79.904 752.716 76.8 755.372 74.208C758.028 71.616 761.26 70.32 765.068 70.32C768.94 70.32 772.188 71.616 774.812 74.208C777.436 76.8 778.748 79.904 778.748 83.52V84.96H759.788C760.044 86.656 760.62 87.968 761.516 88.896C762.444 89.792 763.628 90.24 765.068 90.24C766.764 90.24 768.044 89.808 768.908 88.944C769.292 88.592 769.612 88.144 769.868 87.6H778.508C777.932 89.36 777.068 90.88 775.916 92.16C773.388 95.2 769.772 96.72 765.068 96.72C761.26 96.72 758.028 95.424 755.372 92.832ZM760.028 80.88H770.108C769.82 79.728 769.228 78.768 768.332 78C767.436 77.2 766.348 76.8 765.068 76.8C763.788 76.8 762.7 77.2 761.804 78C760.908 78.768 760.316 79.728 760.028 80.88ZM780.428 78V71.04H804.908V78H796.748V96H788.588V78H780.428ZM802.721 92.4C802.721 91.184 803.137 90.16 803.969 89.328C804.801 88.496 805.825 88.08 807.041 88.08C808.449 88.08 809.553 88.592 810.353 89.616C811.185 90.608 811.601 92.096 811.601 94.08C811.601 96.96 810.881 99.152 809.441 100.656C808.001 102.192 806.001 102.96 803.441 102.96V99.84C804.625 99.84 805.553 99.52 806.225 98.88C806.929 98.272 807.281 97.472 807.281 96.48V96L806.945 96.144C806.625 96.208 806.337 96.24 806.081 96.24C805.089 96.24 804.273 95.904 803.633 95.232C803.025 94.528 802.721 93.584 802.721 92.4ZM6.12 158V124.4H24.12C27.576 124.4 30.28 125.2 32.232 126.8C34.184 128.4 35.16 130.4 35.16 132.8C35.16 135.2 34.28 137.088 32.52 138.464C31.688 139.04 30.808 139.472 29.88 139.76V140C31.096 140.352 32.168 140.848 33.096 141.488C35.272 142.992 36.36 145.216 36.36 148.16C36.36 151.04 35.256 153.408 33.048 155.264C30.84 157.088 27.704 158 23.64 158H6.12ZM15 137.36H22.2C23.384 137.36 24.28 137.104 24.888 136.592C25.496 136.048 25.8 135.344 25.8 134.48C25.8 133.616 25.496 132.928 24.888 132.416C24.28 131.872 23.384 131.6 22.2 131.6H15V137.36ZM15 150.8H22.68C24.184 150.8 25.32 150.496 26.088 149.888C26.856 149.28 27.24 148.464 27.24 147.44C27.24 146.416 26.856 145.6 26.088 144.992C25.32 144.384 24.184 144.08 22.68 144.08H15V150.8ZM42.7185 155.12C40.5745 152.688 39.5025 149.488 39.5025 145.52C39.5025 141.552 40.5745 138.368 42.7185 135.968C44.8625 133.536 47.4705 132.32 50.5425 132.32C52.5265 132.32 54.3985 133.008 56.1585 134.384C56.8945 134.992 57.5025 135.664 57.9825 136.4H58.4625V133.04H66.6225V158H58.4625V154.64H57.9825C57.5345 155.408 56.9265 156.096 56.1585 156.704C54.4305 158.048 52.5585 158.72 50.5425 158.72C47.4705 158.72 44.8625 157.52 42.7185 155.12ZM49.3425 140.912C48.3825 142 47.9025 143.536 47.9025 145.52C47.9025 147.504 48.3825 149.04 49.3425 150.128C50.3025 151.216 51.5825 151.76 53.1825 151.76C54.7825 151.76 56.0625 151.216 57.0225 150.128C57.9825 149.04 58.4625 147.504 58.4625 145.52C58.4625 143.536 57.9825 142 57.0225 140.912C56.0625 139.824 54.7825 139.28 53.1825 139.28C51.5825 139.28 50.3025 139.824 49.3425 140.912ZM71.4 158V133.04H79.56V151.04H85.08V133.04H93.24V151.04H98.76V133.04H106.92V158H71.4ZM125.166 167.12V133.04H133.326V136.4H133.806C134.254 135.664 134.862 134.992 135.63 134.384C137.39 133.008 139.262 132.32 141.246 132.32C144.318 132.32 146.926 133.536 149.07 135.968C151.214 138.368 152.286 141.552 152.286 145.52C152.286 149.488 151.214 152.688 149.07 155.12C146.926 157.52 144.318 158.72 141.246 158.72C139.23 158.72 137.358 158.048 135.63 156.704C134.862 156.096 134.254 155.408 133.806 154.64H133.326V167.12H125.166ZM134.766 140.912C133.806 142 133.326 143.536 133.326 145.52C133.326 147.504 133.806 149.04 134.766 150.128C135.726 151.216 137.006 151.76 138.606 151.76C140.206 151.76 141.486 151.216 142.446 150.128C143.406 149.04 143.886 147.504 143.886 145.52C143.886 143.536 143.406 142 142.446 140.912C141.486 139.824 140.206 139.28 138.606 139.28C137.006 139.28 135.726 139.824 134.766 140.912ZM158.887 154.832C156.231 152.24 154.903 149.136 154.903 145.52C154.903 141.904 156.231 138.8 158.887 136.208C161.543 133.616 164.775 132.32 168.583 132.32C172.455 132.32 175.703 133.616 178.327 136.208C180.951 138.8 182.263 141.904 182.263 145.52V146.96H163.303C163.559 148.656 164.135 149.968 165.031 150.896C165.959 151.792 167.143 152.24 168.583 152.24C170.279 152.24 171.559 151.808 172.423 150.944C172.807 150.592 173.127 150.144 173.383 149.6H182.023C181.447 151.36 180.583 152.88 179.431 154.16C176.903 157.2 173.287 158.72 168.583 158.72C164.775 158.72 161.543 157.424 158.887 154.832ZM163.543 142.88H173.623C173.335 141.728 172.743 140.768 171.847 140C170.951 139.2 169.863 138.8 168.583 138.8C167.303 138.8 166.215 139.2 165.319 140C164.423 140.768 163.831 141.728 163.543 142.88ZM185.383 143.6C185.383 137.232 186.807 132.448 189.655 129.248C192.503 126.016 196.519 124.4 201.703 124.4H209.863V131.36H202.903C196.759 131.36 193.559 133.84 193.303 138.8H193.783C194.199 138.224 194.743 137.664 195.415 137.12C196.983 136 198.839 135.44 200.983 135.44C204.247 135.44 206.935 136.512 209.047 138.656C211.191 140.768 212.263 143.456 212.263 146.72C212.263 150.144 211.015 153.008 208.519 155.312C206.055 157.584 202.823 158.72 198.823 158.72C194.887 158.72 191.655 157.36 189.127 154.64C186.631 151.888 185.383 148.208 185.383 143.6ZM193.783 146.48C193.783 148.08 194.247 149.36 195.175 150.32C196.135 151.28 197.351 151.76 198.823 151.76C200.295 151.76 201.495 151.28 202.423 150.32C203.383 149.36 203.863 148.08 203.863 146.48C203.863 144.944 203.383 143.68 202.423 142.688C201.463 141.696 200.263 141.2 198.823 141.2C197.383 141.2 196.183 141.696 195.223 142.688C194.263 143.68 193.783 144.944 193.783 146.48ZM218.653 154.832C215.997 152.24 214.669 149.136 214.669 145.52C214.669 141.904 215.997 138.8 218.653 136.208C221.309 133.616 224.541 132.32 228.349 132.32C232.221 132.32 235.469 133.616 238.093 136.208C240.717 138.8 242.029 141.904 242.029 145.52V146.96H223.069C223.325 148.656 223.901 149.968 224.797 150.896C225.725 151.792 226.909 152.24 228.349 152.24C230.045 152.24 231.325 151.808 232.189 150.944C232.573 150.592 232.893 150.144 233.149 149.6H241.789C241.213 151.36 240.349 152.88 239.197 154.16C236.669 157.2 233.053 158.72 228.349 158.72C224.541 158.72 221.309 157.424 218.653 154.832ZM223.309 142.88H233.389C233.101 141.728 232.509 140.768 231.613 140C230.717 139.2 229.629 138.8 228.349 138.8C227.069 138.8 225.981 139.2 225.085 140C224.189 140.768 223.597 141.728 223.309 142.88ZM245.869 158V133.04H254.029V141.92H262.669V133.04H270.829V158H262.669V148.88H254.029V158H245.869ZM278.466 154.832C275.778 152.24 274.434 149.136 274.434 145.52C274.434 141.904 275.778 138.8 278.466 136.208C281.154 133.616 284.45 132.32 288.354 132.32C292.258 132.32 295.554 133.616 298.242 136.208C300.93 138.8 302.274 141.904 302.274 145.52C302.274 149.136 300.93 152.24 298.242 154.832C295.554 157.424 292.258 158.72 288.354 158.72C284.45 158.72 281.154 157.424 278.466 154.832ZM284.37 141.008C283.346 142.128 282.834 143.632 282.834 145.52C282.834 147.408 283.346 148.928 284.37 150.08C285.426 151.2 286.754 151.76 288.354 151.76C289.954 151.76 291.266 151.2 292.29 150.08C293.346 148.928 293.874 147.408 293.874 145.52C293.874 143.632 293.346 142.128 292.29 141.008C291.266 139.856 289.954 139.28 288.354 139.28C286.754 139.28 285.426 139.856 284.37 141.008ZM305.869 158V133.04H314.029V141.92H316.669L322.189 133.04H330.829L323.629 144.8L331.549 158H322.669L317.149 148.88H314.029V158H305.869ZM347.4 158V133.04H358.2L363.24 145.52H363.96L369 133.04H379.8V158H371.88V145.52L372.36 142.16H371.88L367.08 153.2H360.12L355.32 142.16H354.84L355.32 145.52V158H347.4ZM387.451 154.832C384.763 152.24 383.419 149.136 383.419 145.52C383.419 141.904 384.763 138.8 387.451 136.208C390.139 133.616 393.435 132.32 397.339 132.32C401.243 132.32 404.539 133.616 407.227 136.208C409.915 138.8 411.259 141.904 411.259 145.52C411.259 149.136 409.915 152.24 407.227 154.832C404.539 157.424 401.243 158.72 397.339 158.72C393.435 158.72 390.139 157.424 387.451 154.832ZM393.355 141.008C392.331 142.128 391.819 143.632 391.819 145.52C391.819 147.408 392.331 148.928 393.355 150.08C394.411 151.2 395.739 151.76 397.339 151.76C398.939 151.76 400.251 151.2 401.275 150.08C402.331 148.928 402.859 147.408 402.859 145.52C402.859 143.632 402.331 142.128 401.275 141.008C400.251 139.856 398.939 139.28 397.339 139.28C395.739 139.28 394.411 139.856 393.355 141.008ZM411.516 158L419.436 144.8L412.236 133.04H420.876L426.156 141.92H428.316V133.04H436.476V141.92H438.636L443.916 133.04H452.556L445.356 144.8L453.276 158H444.396L439.116 148.88H436.476V158H428.316V148.88H425.676L420.396 158H411.516ZM457.528 154.832C454.872 152.24 453.544 149.136 453.544 145.52C453.544 141.904 454.872 138.8 457.528 136.208C460.184 133.616 463.416 132.32 467.224 132.32C471.096 132.32 474.344 133.616 476.968 136.208C479.592 138.8 480.904 141.904 480.904 145.52V146.96H461.944C462.2 148.656 462.776 149.968 463.672 150.896C464.6 151.792 465.784 152.24 467.224 152.24C468.92 152.24 470.2 151.808 471.064 150.944C471.448 150.592 471.768 150.144 472.024 149.6H480.664C480.088 151.36 479.224 152.88 478.072 154.16C475.544 157.2 471.928 158.72 467.224 158.72C463.416 158.72 460.184 157.424 457.528 154.832ZM462.184 142.88H472.264C471.976 141.728 471.384 140.768 470.488 140C469.592 139.2 468.504 138.8 467.224 138.8C465.944 138.8 464.856 139.2 463.96 140C463.064 140.768 462.472 141.728 462.184 142.88ZM482.584 140V133.04H507.064V140H498.904V158H490.744V140H482.584ZM518.068 140V133.04H542.548V140H534.388V158H526.228V140H518.068ZM547.422 155.12C545.278 152.688 544.206 149.488 544.206 145.52C544.206 141.552 545.278 138.368 547.422 135.968C549.566 133.536 552.174 132.32 555.246 132.32C557.23 132.32 559.102 133.008 560.862 134.384C561.598 134.992 562.206 135.664 562.686 136.4H563.166V133.04H571.326V158H563.166V154.64H562.686C562.238 155.408 561.63 156.096 560.862 156.704C559.134 158.048 557.262 158.72 555.246 158.72C552.174 158.72 549.566 157.52 547.422 155.12ZM554.046 140.912C553.086 142 552.606 143.536 552.606 145.52C552.606 147.504 553.086 149.04 554.046 150.128C555.006 151.216 556.286 151.76 557.886 151.76C559.486 151.76 560.766 151.216 561.726 150.128C562.686 149.04 563.166 147.504 563.166 145.52C563.166 143.536 562.686 142 561.726 140.912C560.766 139.824 559.486 139.28 557.886 139.28C556.286 139.28 555.006 139.824 554.046 140.912ZM576.103 158V133.04H584.263V141.92H586.903L592.423 133.04H601.063L593.863 144.8L601.783 158H592.903L587.383 148.88H584.263V158H576.103ZM615.234 158L623.154 144.8L615.954 133.04H624.594L629.874 141.92H632.034V133.04H640.194V141.92H642.354L647.634 133.04H656.274L649.074 144.8L656.994 158H648.114L642.834 148.88H640.194V158H632.034V148.88H629.394L624.114 158H615.234ZM661.247 154.832C658.591 152.24 657.263 149.136 657.263 145.52C657.263 141.904 658.591 138.8 661.247 136.208C663.903 133.616 667.135 132.32 670.943 132.32C674.815 132.32 678.063 133.616 680.687 136.208C683.311 138.8 684.623 141.904 684.623 145.52V146.96H665.663C665.919 148.656 666.495 149.968 667.391 150.896C668.319 151.792 669.503 152.24 670.943 152.24C672.639 152.24 673.919 151.808 674.783 150.944C675.167 150.592 675.487 150.144 675.743 149.6H684.383C683.807 151.36 682.943 152.88 681.791 154.16C679.263 157.2 675.647 158.72 670.943 158.72C667.135 158.72 663.903 157.424 661.247 154.832ZM665.903 142.88H675.983C675.695 141.728 675.103 140.768 674.207 140C673.311 139.2 672.223 138.8 670.943 138.8C669.663 138.8 668.575 139.2 667.679 140C666.783 140.768 666.191 141.728 665.903 142.88ZM689.423 139.28V124.4H697.583V139.28L696.143 146.96H690.863L689.423 139.28ZM690.431 157.472C689.599 156.64 689.183 155.616 689.183 154.4C689.183 153.184 689.599 152.16 690.431 151.328C691.263 150.496 692.287 150.08 693.503 150.08C694.719 150.08 695.743 150.496 696.575 151.328C697.407 152.16 697.823 153.184 697.823 154.4C697.823 155.616 697.407 156.64 696.575 157.472C695.743 158.304 694.719 158.72 693.503 158.72C692.287 158.72 691.263 158.304 690.431 157.472Z" fill="white"/>
</svg>
