<svg width="360" height="100" viewBox="0 0 360 100" fill="none" xmlns="http://www.w3.org/2000/svg">
<g filter="url(#filter0_i_112_156)">
<g clip-path="url(#clip0_112_156)">
<path d="M0 40C0 21.1438 0 11.7157 5.85786 5.85786C11.7157 0 21.1438 0 40 0H320C338.856 0 348.284 0 354.142 5.85786C360 11.7157 360 21.1438 360 40V60C360 78.8562 360 88.2843 354.142 94.1421C348.284 100 338.856 100 320 100H40C21.1438 100 11.7157 100 5.85786 94.1421C0 88.2843 0 78.8562 0 60V40Z" fill="#002BFF"/>
<g filter="url(#filter1_f_112_156)">
<g filter="url(#filter2_f_112_156)">
<path d="M460 149C460 205.885 413.885 252 357 252C300.115 252 254 205.885 254 149C254 92.1147 300.115 46 357 46C413.885 46 460 92.1147 460 149Z" fill="#9F8EFF" fill-opacity="0.2"/>
<path d="M460 149C460 205.885 413.885 252 357 252C300.115 252 254 205.885 254 149C254 92.1147 300.115 46 357 46C413.885 46 460 92.1147 460 149Z" fill="#9F8EFF" fill-opacity="0.2"/>
</g>
<g filter="url(#filter3_f_112_156)">
<path d="M460 149C460 205.885 413.885 252 357 252C300.115 252 254 205.885 254 149C254 92.1147 300.115 46 357 46C413.885 46 460 92.1147 460 149Z" fill="#9F8EFF" fill-opacity="0.2"/>
<path d="M460 149C460 205.885 413.885 252 357 252C300.115 252 254 205.885 254 149C254 92.1147 300.115 46 357 46C413.885 46 460 92.1147 460 149Z" fill="#9F8EFF" fill-opacity="0.2"/>
</g>
<g filter="url(#filter4_f_112_156)">
<path d="M460 149C460 205.885 413.885 252 357 252C300.115 252 254 205.885 254 149C254 92.1147 300.115 46 357 46C413.885 46 460 92.1147 460 149Z" fill="#9F8EFF" fill-opacity="0.2"/>
<path d="M460 149C460 205.885 413.885 252 357 252C300.115 252 254 205.885 254 149C254 92.1147 300.115 46 357 46C413.885 46 460 92.1147 460 149Z" fill="#9F8EFF" fill-opacity="0.2"/>
</g>
<g filter="url(#filter5_f_112_156)">
<path d="M460 149C460 205.885 413.885 252 357 252C300.115 252 254 205.885 254 149C254 92.1147 300.115 46 357 46C413.885 46 460 92.1147 460 149Z" fill="#9F8EFF" fill-opacity="0.2"/>
<path d="M460 149C460 205.885 413.885 252 357 252C300.115 252 254 205.885 254 149C254 92.1147 300.115 46 357 46C413.885 46 460 92.1147 460 149Z" fill="#9F8EFF" fill-opacity="0.2"/>
</g>
<g filter="url(#filter6_f_112_156)">
<path d="M173 -51.5C173 -8.69794 138.302 26 95.5 26C52.6979 26 18 -8.69794 18 -51.5C18 -94.3021 52.6979 -129 95.5 -129C138.302 -129 173 -94.3021 173 -51.5Z" fill="#9F8EFF" fill-opacity="0.2"/>
<path d="M173 -51.5C173 -8.69794 138.302 26 95.5 26C52.6979 26 18 -8.69794 18 -51.5C18 -94.3021 52.6979 -129 95.5 -129C138.302 -129 173 -94.3021 173 -51.5Z" fill="#9F8EFF" fill-opacity="0.2"/>
</g>
<g filter="url(#filter7_f_112_156)">
<path d="M173 -51.5C173 -8.69794 138.302 26 95.5 26C52.6979 26 18 -8.69794 18 -51.5C18 -94.3021 52.6979 -129 95.5 -129C138.302 -129 173 -94.3021 173 -51.5Z" fill="#9F8EFF" fill-opacity="0.2"/>
<path d="M173 -51.5C173 -8.69794 138.302 26 95.5 26C52.6979 26 18 -8.69794 18 -51.5C18 -94.3021 52.6979 -129 95.5 -129C138.302 -129 173 -94.3021 173 -51.5Z" fill="#9F8EFF" fill-opacity="0.2"/>
</g>
<g filter="url(#filter8_f_112_156)">
<path d="M173 -51.5C173 -8.69794 138.302 26 95.5 26C52.6979 26 18 -8.69794 18 -51.5C18 -94.3021 52.6979 -129 95.5 -129C138.302 -129 173 -94.3021 173 -51.5Z" fill="#9F8EFF" fill-opacity="0.2"/>
<path d="M173 -51.5C173 -8.69794 138.302 26 95.5 26C52.6979 26 18 -8.69794 18 -51.5C18 -94.3021 52.6979 -129 95.5 -129C138.302 -129 173 -94.3021 173 -51.5Z" fill="#9F8EFF" fill-opacity="0.2"/>
</g>
<g filter="url(#filter9_f_112_156)">
<path d="M173 -51.5C173 -8.69794 138.302 26 95.5 26C52.6979 26 18 -8.69794 18 -51.5C18 -94.3021 52.6979 -129 95.5 -129C138.302 -129 173 -94.3021 173 -51.5Z" fill="#9F8EFF" fill-opacity="0.2"/>
<path d="M173 -51.5C173 -8.69794 138.302 26 95.5 26C52.6979 26 18 -8.69794 18 -51.5C18 -94.3021 52.6979 -129 95.5 -129C138.302 -129 173 -94.3021 173 -51.5Z" fill="#9F8EFF" fill-opacity="0.2"/>
</g>
</g>
<path d="M99.18 51.84H102.9C103.044 52.272 103.284 52.656 103.62 52.992C104.372 53.744 105.452 54.12 106.86 54.12C107.9 54.12 108.676 53.928 109.188 53.544C109.716 53.144 109.98 52.616 109.98 51.96C109.98 50.68 108.9 50.04 106.74 50.04H104.46V46.68H106.74C108.58 46.68 109.5 46.08 109.5 44.88C109.5 44.368 109.268 43.944 108.804 43.608C108.34 43.256 107.652 43.08 106.74 43.08C105.54 43.08 104.62 43.4 103.98 44.04C103.692 44.328 103.492 44.648 103.38 45H99.66C99.868 44.04 100.284 43.16 100.908 42.36C102.252 40.6 104.236 39.72 106.86 39.72C108.828 39.72 110.38 40.2 111.516 41.16C112.652 42.104 113.22 43.264 113.22 44.64C113.22 45.776 112.796 46.704 111.948 47.424C111.628 47.696 111.212 47.928 110.7 48.12V48.36C111.244 48.52 111.74 48.776 112.188 49.128C113.196 49.912 113.7 50.976 113.7 52.32C113.7 53.84 113.1 55.08 111.9 56.04C110.716 57 108.996 57.48 106.74 57.48C103.892 57.48 101.788 56.544 100.428 54.672C99.82 53.84 99.404 52.896 99.18 51.84ZM119.272 55.584C118.2 54.384 117.664 52.816 117.664 50.88C117.664 48.944 118.2 47.384 119.272 46.2C120.36 45 121.704 44.4 123.304 44.4C124.376 44.4 125.344 44.72 126.208 45.36C126.576 45.664 126.888 45.984 127.144 46.32H127.264V44.76H130.624V57H127.264V55.44H127.144C126.888 55.776 126.576 56.096 126.208 56.4C125.344 57.04 124.376 57.36 123.304 57.36C121.704 57.36 120.36 56.768 119.272 55.584ZM121.984 48.24C121.424 48.88 121.144 49.76 121.144 50.88C121.144 52 121.424 52.88 121.984 53.52C122.544 54.16 123.264 54.48 124.144 54.48C125.072 54.48 125.824 54.168 126.4 53.544C126.976 52.904 127.264 52.016 127.264 50.88C127.264 49.744 126.976 48.864 126.4 48.24C125.824 47.6 125.072 47.28 124.144 47.28C123.264 47.28 122.544 47.6 121.984 48.24ZM135.664 57V44.76H147.424V57H144.064V47.64H139.024V57H135.664ZM152.454 57V44.76H155.814V50.04L155.694 52.2H155.934L160.854 44.76H164.454V57H161.094V51.72L161.214 49.56H160.974L156.054 57H152.454ZM170.679 55.488C169.415 54.224 168.783 52.688 168.783 50.88C168.783 49.072 169.415 47.544 170.679 46.296C171.959 45.032 173.527 44.4 175.383 44.4C177.607 44.4 179.303 45.2 180.471 46.8C180.999 47.488 181.383 48.288 181.623 49.2H178.143C177.999 48.848 177.807 48.528 177.567 48.24C176.959 47.6 176.231 47.28 175.383 47.28C174.535 47.28 173.799 47.616 173.175 48.288C172.567 48.96 172.263 49.824 172.263 50.88C172.263 51.936 172.567 52.8 173.175 53.472C173.799 54.144 174.535 54.48 175.383 54.48C176.231 54.48 176.959 54.16 177.567 53.52C177.807 53.232 177.999 52.912 178.143 52.56H181.623C181.399 53.488 181.031 54.288 180.519 54.96C179.351 56.56 177.639 57.36 175.383 57.36C173.527 57.36 171.959 56.736 170.679 55.488ZM186.95 55.584C185.878 54.384 185.342 52.816 185.342 50.88C185.342 48.944 185.878 47.384 186.95 46.2C188.038 45 189.382 44.4 190.982 44.4C192.054 44.4 193.022 44.72 193.886 45.36C194.254 45.664 194.566 45.984 194.822 46.32H194.942V44.76H198.302V57H194.942V55.44H194.822C194.566 55.776 194.254 56.096 193.886 56.4C193.022 57.04 192.054 57.36 190.982 57.36C189.382 57.36 188.038 56.768 186.95 55.584ZM189.662 48.24C189.102 48.88 188.822 49.76 188.822 50.88C188.822 52 189.102 52.88 189.662 53.52C190.222 54.16 190.942 54.48 191.822 54.48C192.75 54.48 193.502 54.168 194.078 53.544C194.654 52.904 194.942 52.016 194.942 50.88C194.942 49.744 194.654 48.864 194.078 48.24C193.502 47.6 192.75 47.28 191.822 47.28C190.942 47.28 190.222 47.6 189.662 48.24ZM202.142 47.64V44.76H213.662V47.64H209.582V57H206.222V47.64H202.142ZM217.508 57V44.76H220.868V48.6H223.628C225.084 48.6 226.268 49.008 227.18 49.824C228.092 50.64 228.548 51.632 228.548 52.8C228.548 53.968 228.092 54.96 227.18 55.776C226.268 56.592 225.084 57 223.628 57H217.508ZM220.868 54.24H223.388C223.916 54.24 224.324 54.112 224.612 53.856C224.916 53.584 225.068 53.232 225.068 52.8C225.068 52.368 224.916 52.024 224.612 51.768C224.324 51.496 223.916 51.36 223.388 51.36H220.868V54.24ZM233.927 55.488C232.663 54.224 232.031 52.688 232.031 50.88C232.031 49.072 232.663 47.544 233.927 46.296C235.207 45.032 236.775 44.4 238.631 44.4C240.855 44.4 242.551 45.2 243.719 46.8C244.247 47.488 244.631 48.288 244.871 49.2H241.391C241.247 48.848 241.055 48.528 240.815 48.24C240.207 47.6 239.479 47.28 238.631 47.28C237.783 47.28 237.047 47.616 236.423 48.288C235.815 48.96 235.511 49.824 235.511 50.88C235.511 51.936 235.815 52.8 236.423 53.472C237.047 54.144 237.783 54.48 238.631 54.48C239.479 54.48 240.207 54.16 240.815 53.52C241.055 53.232 241.247 52.912 241.391 52.56H244.871C244.647 53.488 244.279 54.288 243.767 54.96C242.599 56.56 240.887 57.36 238.631 57.36C236.775 57.36 235.207 56.736 233.927 55.488ZM248.59 57L251.11 52.56C250.71 52.368 250.35 52.112 250.03 51.792C249.31 51.072 248.95 50.128 248.95 48.96C248.95 47.728 249.382 46.72 250.246 45.936C251.126 45.152 252.334 44.76 253.87 44.76H259.99V57H256.63V53.28H254.23L252.31 57H248.59ZM252.43 48.96C252.43 49.456 252.582 49.84 252.886 50.112C253.19 50.384 253.63 50.52 254.206 50.52H256.63V47.64H254.206C253.646 47.64 253.206 47.768 252.886 48.024C252.582 48.264 252.43 48.576 252.43 48.96Z" fill="white"/>
</g>
</g>
<defs>
<filter id="filter0_i_112_156" x="0" y="0" width="360" height="100" filterUnits="userSpaceOnUse" color-interpolation-filters="sRGB">
<feFlood flood-opacity="0" result="BackgroundImageFix"/>
<feBlend mode="normal" in="SourceGraphic" in2="BackgroundImageFix" result="shape"/>
<feColorMatrix in="SourceAlpha" type="matrix" values="0 0 0 0 0 0 0 0 0 0 0 0 0 0 0 0 0 0 127 0" result="hardAlpha"/>
<feOffset/>
<feGaussianBlur stdDeviation="16"/>
<feComposite in2="hardAlpha" operator="arithmetic" k2="-1" k3="1"/>
<feColorMatrix type="matrix" values="0 0 0 0 1 0 0 0 0 1 0 0 0 0 1 0 0 0 0.5 0"/>
<feBlend mode="normal" in2="shape" result="effect1_innerShadow_112_156"/>
</filter>
<filter id="filter1_f_112_156" x="-78" y="-225" width="634" height="573" filterUnits="userSpaceOnUse" color-interpolation-filters="sRGB">
<feFlood flood-opacity="0" result="BackgroundImageFix"/>
<feBlend mode="normal" in="SourceGraphic" in2="BackgroundImageFix" result="shape"/>
<feGaussianBlur stdDeviation="48" result="effect1_foregroundBlur_112_156"/>
</filter>
<filter id="filter2_f_112_156" x="194" y="-14" width="326" height="326" filterUnits="userSpaceOnUse" color-interpolation-filters="sRGB">
<feFlood flood-opacity="0" result="BackgroundImageFix"/>
<feBlend mode="normal" in="SourceGraphic" in2="BackgroundImageFix" result="shape"/>
<feGaussianBlur stdDeviation="30" result="effect1_foregroundBlur_112_156"/>
</filter>
<filter id="filter3_f_112_156" x="194" y="-14" width="326" height="326" filterUnits="userSpaceOnUse" color-interpolation-filters="sRGB">
<feFlood flood-opacity="0" result="BackgroundImageFix"/>
<feBlend mode="normal" in="SourceGraphic" in2="BackgroundImageFix" result="shape"/>
<feGaussianBlur stdDeviation="30" result="effect1_foregroundBlur_112_156"/>
</filter>
<filter id="filter4_f_112_156" x="194" y="-14" width="326" height="326" filterUnits="userSpaceOnUse" color-interpolation-filters="sRGB">
<feFlood flood-opacity="0" result="BackgroundImageFix"/>
<feBlend mode="normal" in="SourceGraphic" in2="BackgroundImageFix" result="shape"/>
<feGaussianBlur stdDeviation="30" result="effect1_foregroundBlur_112_156"/>
</filter>
<filter id="filter5_f_112_156" x="194" y="-14" width="326" height="326" filterUnits="userSpaceOnUse" color-interpolation-filters="sRGB">
<feFlood flood-opacity="0" result="BackgroundImageFix"/>
<feBlend mode="normal" in="SourceGraphic" in2="BackgroundImageFix" result="shape"/>
<feGaussianBlur stdDeviation="30" result="effect1_foregroundBlur_112_156"/>
</filter>
<filter id="filter6_f_112_156" x="-42" y="-189" width="275" height="275" filterUnits="userSpaceOnUse" color-interpolation-filters="sRGB">
<feFlood flood-opacity="0" result="BackgroundImageFix"/>
<feBlend mode="normal" in="SourceGraphic" in2="BackgroundImageFix" result="shape"/>
<feGaussianBlur stdDeviation="30" result="effect1_foregroundBlur_112_156"/>
</filter>
<filter id="filter7_f_112_156" x="-42" y="-189" width="275" height="275" filterUnits="userSpaceOnUse" color-interpolation-filters="sRGB">
<feFlood flood-opacity="0" result="BackgroundImageFix"/>
<feBlend mode="normal" in="SourceGraphic" in2="BackgroundImageFix" result="shape"/>
<feGaussianBlur stdDeviation="30" result="effect1_foregroundBlur_112_156"/>
</filter>
<filter id="filter8_f_112_156" x="-42" y="-189" width="275" height="275" filterUnits="userSpaceOnUse" color-interpolation-filters="sRGB">
<feFlood flood-opacity="0" result="BackgroundImageFix"/>
<feBlend mode="normal" in="SourceGraphic" in2="BackgroundImageFix" result="shape"/>
<feGaussianBlur stdDeviation="30" result="effect1_foregroundBlur_112_156"/>
</filter>
<filter id="filter9_f_112_156" x="-42" y="-189" width="275" height="275" filterUnits="userSpaceOnUse" color-interpolation-filters="sRGB">
<feFlood flood-opacity="0" result="BackgroundImageFix"/>
<feBlend mode="normal" in="SourceGraphic" in2="BackgroundImageFix" result="shape"/>
<feGaussianBlur stdDeviation="30" result="effect1_foregroundBlur_112_156"/>
</filter>
<clipPath id="clip0_112_156">
<path d="M0 40C0 21.1438 0 11.7157 5.85786 5.85786C11.7157 0 21.1438 0 40 0H320C338.856 0 348.284 0 354.142 5.85786C360 11.7157 360 21.1438 360 40V60C360 78.8562 360 88.2843 354.142 94.1421C348.284 100 338.856 100 320 100H40C21.1438 100 11.7157 100 5.85786 94.1421C0 88.2843 0 78.8562 0 60V40Z" fill="white"/>
</clipPath>
</defs>
</svg>
